<mxfile host="Electron" modified="2023-10-11T03:12:32.259Z" agent="Mozilla/5.0 (Windows NT 10.0; Win64; x64) AppleWebKit/537.36 (KHTML, like Gecko) draw.io/22.0.2 Chrome/114.0.5735.289 Electron/25.8.4 Safari/537.36" etag="IzpCDmB4LimLJtSw5Bhy" version="22.0.2" type="device">
  <diagram id="O7eZc46ZZwnGStR_8Ms4" name="App-CD">
    <mxGraphModel dx="2578" dy="1505" grid="1" gridSize="10" guides="1" tooltips="1" connect="1" arrows="1" fold="1" page="1" pageScale="1" pageWidth="1100" pageHeight="850" math="0" shadow="0">
      <root>
        <mxCell id="4POnMIoaygIDgxZVQFEF-0" />
        <mxCell id="4POnMIoaygIDgxZVQFEF-1" parent="4POnMIoaygIDgxZVQFEF-0" />
        <mxCell id="U0VX0Dr13TpcydgO_tEg-2" value="&lt;br style=&quot;font-size: 16px ; font-weight: 700&quot;&gt;&lt;span style=&quot;font-size: 16px ; font-weight: 700&quot;&gt;20 points total.&lt;br&gt;&lt;/span&gt;&lt;span style=&quot;font-size: 16px ; font-weight: 700&quot;&gt;Design a Mini-Kindle App that conforms with the MVC pattern. At this time, the Mini-Kindle App only has&lt;/span&gt;&lt;br style=&quot;font-size: 16px ; font-weight: 700&quot;&gt;&lt;span style=&quot;font-size: 16px ; font-weight: 700&quot;&gt;two views, the Library view and the Book view.&lt;/span&gt;&lt;br style=&quot;font-size: 16px ; font-weight: 700&quot;&gt;&lt;ul style=&quot;font-size: 16px ; font-weight: 700&quot;&gt;&lt;li&gt;In the Library view the user can (i) synchronize the book library with the library in the cloud, and (ii) select (open) a book to read.&amp;nbsp;&lt;/li&gt;&lt;li&gt;When the library is synchronized, the library view is updated with the new content (if any) from the cloud library.&lt;/li&gt;&lt;li&gt;In the Book view, the user can (i) flip pages back and forward, (ii) set/remove bookmarks (up t&lt;font color=&quot;#ff0000&quot;&gt;o&lt;/font&gt; 5 bookmarks per book), (iii) go to a specific page (by providing a page number)&lt;/li&gt;&lt;li&gt;When the user selects/opens a book, the latest/current page is displayed&lt;/li&gt;&lt;/ul&gt;&lt;ul style=&quot;font-size: 16px ; font-weight: 700&quot;&gt;&lt;li&gt;&lt;span style=&quot;font-size: 16px&quot;&gt;&lt;b&gt;You may use enums with different states to update the views&lt;/b&gt;&lt;/span&gt;&lt;/li&gt;&lt;/ul&gt;&lt;span style=&quot;font-size: 16px&quot;&gt;&lt;b&gt;The user can execute the commands from a GUI. You can assume that there are controls in the GUI for each of the operations mentioned above.&amp;nbsp;&lt;br&gt;&lt;/b&gt;&lt;/span&gt;&lt;br style=&quot;font-size: 16px ; font-weight: 700&quot;&gt;&lt;span style=&quot;font-size: 16px ; font-weight: 700&quot;&gt;Your class diagram must follow the MVC as we discussed in class&amp;nbsp;&lt;/span&gt;&lt;span style=&quot;font-size: 12pt ; font-family: &amp;quot;cambria&amp;quot; , serif&quot;&gt;&lt;b&gt;or if you feel more comfortable with the MVVM you can use it instead&lt;/b&gt;&lt;/span&gt;&lt;span style=&quot;font-size: 16px&quot;&gt;&lt;b&gt;. You MUST use delegates to decouple the View(s) from the Controller(s).&lt;/b&gt;&lt;br&gt;&lt;b&gt;In each class include the minimum attributes and methods needed to satisfy the requirements described above. It is expected full method signatures, appropriate visibility modifiers, descriptive naming convention for classes, attributes, methods, and delegates. All relationships that accept multiplicity must be included in the diagram.&lt;/b&gt;&lt;br&gt;&lt;br&gt;&lt;/span&gt;&lt;span style=&quot;font-size: 12pt&quot;&gt;&lt;b&gt;For your class diagram, remember:&lt;/b&gt;&lt;br&gt;&lt;br&gt;&lt;/span&gt;&lt;span style=&quot;font-size: medium&quot;&gt;&lt;/span&gt;&lt;img src=&quot;data:image/png;base64,iVBORw0KGgoAAAANSUhEUgAAANMAAACZCAYAAAC1xA/TAAAAAXNSR0IArs4c6QAAAERlWElmTU0AKgAAAAgAAYdpAAQAAAABAAAAGgAAAAAAA6ABAAMAAAABAAEAAKACAAQAAAABAAAA06ADAAQAAAABAAAAmQAAAAA881aJAAAto0lEQVR4Ae3dCbz9xfjA8W/Kln2XVsoWZQ0h3UqbsqVSCm0oQihFSUJlpywR2pA92UupJJEUKWQrESLZ92X+z/vxn+P87u/e3z3n/s7vd7d5Xq9zz7nfMzPfmWeeZ56Z773zmRVKSNekaaBpYKk1cIOlLqEV0DTQNJAaaM7UDKFpYEQaaM40IkW2YpoGZo0z/f73v+/+9Kc/tR5pGpizGpg1zvT1r3+9u/vd79795je/mbPKbBVf2BqYNc706Ec/uvvgBz/YPepRj+rOOeechd0rrfVzUgOzxplob+ONN+7OPffcbo899ug+85nPzAmFnnHGGd22226bdf7Sl77UHX744d2d73znbrXVVutWXXXV7slPfnJnCrs85D3veU/3hje8YeS3esUrXtGdddZZ3RZbbNH9/e9/H3n586XAkTrT5Zdf3n3729/uvvWtb3X//Oc/U0fXX399d+mll+brxz/+cU9v3//+93tp//znP+d1a6Zf/vKX3Yc+9KHu4IMP7l7wghd0//jHP3p5Jvugg93vF7/4RffrX/86k1111VXdH/7wh0Wy/PCHP+xdq39eU49rrrmml67mueKKK7q//e1vvevqqH3j5QY3uEH317/+tfv3v//drbzyylmHTTbZpLvooosywt74xjfuttpqq+5f//pXZjWNvfLKK3vFVONUN+X0izb86le/ykv/+c9/uj/+8Y9Zzve+973+ZN1f/vKXvK+L/WX86Ec/6uifyE+X9KTN/XLttdf22qadte+k8bs23vzmN++1oT9v+9ynAX+0HZVsueWWZcMNNyz3u9/9SjhFFnvqqaeWhzzkIfnaZ599ereKETvTrr/++uWSSy7J61/96lcz3SMf+cjygAc8oKyyyiolHLCXZ7IPMRqX2972tmXttdcut7nNbcpjH/vYcsc73rGEEZRvfvObJQy2bLbZZiWiRQmjKMcee2wWNTY2Vu55z3uWu9zlLmX//ffPa2ussUZZd911y+qrr15uectbluuuu67EtLPc+ta3Lve5z31KrOvK7373u15Vvva1r5Vdd921vPjFLy7hJOVZz3pW2WuvvXrf+3C7292uhJPmfdXzTne6U9l0000zzdOf/vRy73vfO+t+i1vcokRkzuvPeMYzSkS2bM/LXvayEg5fVlpppaybttEzOe2000o4bKalryOPPDKvR5RP/bnfCSecUGKgKXe7290yv3aFg5dw8HLyySdnO+nm/ve/f3Ev+ifhzKkb+fXDLrvskrrML9uPxTTQLXZlFlz4wAc+UB784AenAQ1SnTe+8Y1lvfXWKxFJymGHHVZ23HHHzLbTTjuVt771rUV5T3va0/Iao+BwjPO1r31tXjv77LPT4P3CgBkPB2RUJ554YpbHQQljj5E8P/sRo3iJiFFiBC8x+qcjjXemBz3oQSWiSRpzRJHMyxm+8IUvZL1e/vKX57X3v//9OYioD8NWHsddccUVC6eNMbBElC+//e1vc/D4+c9/no75xS9+sURkLE996lPLUUcdVY4//viy9dZbZ5kGg3XWWadIy7E4dUSoHCzUnYP97Gc/y7T0dfrpp5cVVlihRAQt73znO3uDjPK1s8nkGlipL0jN+EdTkUMOOaSz9rjgggu6GIkHqpMpVESlzpTqpje9aRfRLvPd6la3MljkdMta7GEPe1hOWSLC5LTnBz/4QRdRtLvRjW7U3fCGN8w80kdkyt9vf/vb57TpLW95S659IoJ1j3jEI7p3vOMdvXqpoynQksSayVTq6quv7iJC5r1NC7WXKJN4+BKO1YXjdKZo4XBdGHYXA0Wuu7RvzTXXzHZGpOzC0bJ+G220UbYrnD/TmU6bCsqvPdqmDp6WRvTLe8WAkn+KUI+IaHntlFNOyfeI2DkFf9e73tW9+93vzmt1qpe/tB8TamCka6YJ7zDgRQ6x+eabdze5yU26L3/5ywM7Ui1eZ1dhQMS7133ve99um2226WIa2X3605/uOAXDsQaytnnb296Wax55GG9/fuUeccQR6UCcIUbyzkJ/ScI5q3ggweEi0nYRGbrzzz8/68HwPahwr7qG+cpXvpLrLkZ/r3vdK/Vg4a++MbXLImubvNMVsb4j2uK6QeCBD3xgDkgxRe0e+tCHdjG16zmvtBzZGs+ara7nIoJ2MeXuXvrSl3YHHnhgrrfucY97SN5kAA0MNvQPUNDSJjEax9Ski7XL0EUZeY3apEYYnxkbQ4l1TGf0julfjrjbb799PoE7+uiju1ibZMSw6I5pV0aZmFbJnmUqTyTzEOExj3lMGqgHJJOJEf+kk05Kw/YwgDN++MMfTsPdc889u4c//OGdNCJVrG/SeV/zmtdkNBY9TzjhhLzXcccd16mnBzKxrktn4hCc3Ysj3OxmN+tiWtfFWjUdhiNwwt12262T/wlPeEL305/+NNvNoUXtKj7TDafh6He4wx2yXqKyaMXBn/nMZ+Z9ap72vmQNrBAj2Zz/r3GjrGZwgjp1YsT9n30vssTDgDRCBukpWKwpunjYkE+tGJyXcnzPqLwry1M+TwvjAcUiRjleve5Z61Pzyl/F0zX3FW1cj3VOF+u5dAIRpRq8+nrK6HcRTVmMX/1I/2dP+bxEOqJcdZefA5oSEtfqQNGfn9OrEyeX11NMEfg73/lOL28W0H4sUQOzJjItsZZTfNlvrJN9ZozWG/1idOccZKJ1TzU83zNKr6nE/fvrMD49x/CqIqJyHA7dL+rrb1X9Uh3Jtf7P1kF1LVTTq3ttW/+1+rk/P4etTuwR/XbbbdftFtGtOmHN096XrIF5EZmW3MT27bAaMOXtny4Pm3+hpm/OtFB7vrV75Br432R+5EW3ApsGFpYGmjMtrP5urV2GGmjOtAyV24peWBpozrSw+ru1dhlqoDnTMlRuK3phaaA508Lq79baZaiB5kzLULmt6IWlgeZMC6u/W2uXoQaaMy1D5baiF5YGZo0z2R5dt3AvrC5orZ0vGpg1zmTfjf0073vf++aLbls7FpgGZtX/5tkG8MQnPjH/6/rtb397d9e73nXWd4ftCkAw/lPc/qK6r6ry/2z5WBYCtOK/2OsGwfH3sA1EnWKLe6ap/xU+Pt343+t2DP/Jrvz+jY7j07bfF9XASJ3p1a9+9SJ0nEVvNfVvth3YGoBwdOaZZ+ZmvICfDLT1YerSl02Kz372s12wJHIvkU2IyESmqzYBErtnq4ONqgYcBWfw0EMP7cbGxhYr1nb8F77whd2nPvWp7tnPfnZuHnz84x+/WLqJLnz0ox/NjYX2PulPu3SbDKaBke5nMjL37wEarAr/TWUkNJJyJu/KUR4Hm0oCFpKb/GzeM1JjJuBI2OpduQ92rDLsIAN1QUvKLQby2cpuXxPjNxLb+m0fT1CNkisRlKTcb4Q4+5Of/KQL0EmyFGqdjPhGb2XU/T/S2XwnagWsJMuR3m7iWobt4NaJdtfa8uD+drvK5xpkGUOu0dl2d3lNhe28PeaYY3IPFKNXNztq7bLV9m984xvJubNb1k7autepsiUwMmzld3+8CBsL6QeDou7gVQ/6bzKEBsKIZ40g8QRcJFFd6EGDypve9KYS+2/KS17yksSMQWsddNBBJYyhBPOhxDSsxC7UEjDFEgZaYjt4Yq4CuFJe//rXJ56r4q3WWmutEkaZyCxYMKgwFKMNNtigxFbwJPwgHFWJ3ajlla98ZQnIShKAXD/ggANKcCLyftBZJMAkeW/XY0drCWBKiWhRgg2YeC34rpjmluAvlIhuBb4snDSpRGhDMGPhQIkqiw18iUSL6F2e85znFLg0adQ9HKi87nWvK+Hk5bzzzisB9Cyf+MQnysc//vFEisX0ObFlqEvaFqZSYiNg6kR+1+gkttInHiwr334MpAGj7qwQnc1gvA8rUF+ckDDC5z73ufk5GAYlyELF9zvssEMaSgBKkj8HbxU45jRWODAOSGI7eWGkBC4rCD1l3333TWcK0EuJyLUINy8T9v2ISJEcOhivj33sY4XDkoBqloiSiQqLCJEoLTxBvD0YMPWCF4ut6+lU8jBqXL3YmZv1dA227MILL0zHdA8v9YpoViK6peN897vfzTzSyx903HSkmD67lO2DRrvssstKRMi8hnMYs4CsV15oP4bWwEineUMExMWSgpUEm26R7diLJZrkgilJpff4bCpXxZQxjKa7KuiokF1+j8iRTIe999471zhoQP3TU9Oi0GRO36xPTKne+973ds9//vOzLNMq06mJBGzF9ElaArEVIM7uVa96VWdq594XX3xxTjk9wYT2AkRxP1NTU0afiW3rpnwezJgCElAYddJOEqy9BMHEYJF5tQO5tZYhjd+xLup0r04nleMBibT04uVak+lpYNY8GrdI7+cSDNMcBlCNwHs1NOsJhsRRORuHQAiCb/785z+fa46IhF1Mb3ooZHmrIcpvzQZ6UtdTQW/tAvo4YfWkf/Ob35xOCyPmFVEy0WAoSOpm3cIhPBwAUrGm4ejEGssazDrOU7WITIk/QwyKqVo6Js4fpqB6Se+BwSc/+cnusMMOy3VT/VsdB9QW9+Sg0F/aTB945IhEvlPnKv2f67X2PoQGwnDmvFjLWDsQFNLg4OVn6xW/h9EkOTUeECQ22ZQookdOfWKUzikgsqlyrJ3C2TJPRK4SfL38XV5TsDDKScmmiKembqZrVcJRCqKrqRcssvuhtYYj5BrIus4aCi46jD+nc6aaEUVy7agcVFYIZXnrFDYwXiUeqOTaLh4aJKE1ntyVeGCR1FbTt3jal6944pi4aiho007oaWRX6z30W/qp90BybTI9DYz00fgQPjwjSf3NxVSnPwK6BnFlVA4VLvJdfyU9cZO2Tif7vxv0s0jh70/901AIMdf7iUXu5fr4v1F56lanav33lNaTN1M80ar+7Umb+qev2uf+kGJNRq+BBeVMo1dfK7Fp4H8amDVrpv9VqX1qGpibGmjONDf7rdV6FmqgOdMs7JRWpbmpgeZMc7PfWq1noQaaM83CTmlVmpsaaM40N/ut1XoWaqA50yzslFaluamB5kxzs99arWehBpozzcJOaVWamxqYFc7U/sFybhpPq/WiGphxZ7r00kvzP7JtITj77LPz/9/8N3OTpoG5poEZdybHPtouYCvBpptumlvC8Q2wH/wDZ5OmgbmigRl3JhvSiA10TiXHbIidp90+++zTxXaBPIHd9cpVmCuKbfVceBqY8Z22dbuATXGxR6cLPkMCPmL/TxdbxrvYWp6b2hzgbBOfzX0oQNLPFrFZzzYOmw6f9KQn5c5XcBdbHmziA2GxOW8YURbd2FJhwJlsZ++SyrQj2Nm07j+MoBvZpiL/NttsMy2wCpCMl8FxtohNlFtssUVvi8pU9TKA04U+oMPxB3Yvln9626D+mwuopMJFvI+NjZXNN9+87Lzzzr1ibdDbbLPNEhJy2mmn5fUg75SYymVaG9WwBz73uc/18vR/wGoA/IiK914BquxPMuOfd99994IjEUafm/5iZ2yJrejFdXXHl8CiGEZiB27yLGJberIqhskb0+VMDsBy0kknDZM104bBlXCk1Hft32EL+chHPrKIHQybf9D0l1xySep6svSxuzr7wPd77bVXiT1pkyVd7DoeycYbb1wCa1DCERf7fvwFo+dSiV2axHtstc6XXaRVYpt077qdpKSmlS7WStlp/c7ESVF87GqN0Tm/R+rZbrvtEhxSy6n38I7+o/EM6eSTTy4xNSyBrkrASE0HrLLRRhslJEUdYhNeUnjAWBivHbIIQQg+iEQGh9jqndk59eMe97h8XXnllbXIfDdggKcgIBEkI7tgq+iI2Caev15//fXlKU95SpZzxRVX5LXAdJWddtopB5zaacGGyJ24YCnBhijxcCadk0EAvICk0IN7q39sW8+ykJLsvEViAlsBaiEcC5lJufIF5izbiOyEhnTGGWdkOjtt7eilH7t91c0gGNvsy7bbbluCZVGCXZG6AZshBhL1Znh0R+RRVyK9AdUuYbuR2QRYjH7SX74HljEAVed1X/2NJHX11VeXeOJb1NWuYWUB1BCDlV3Q9K9daE/6ONbc2b/6cNVVVy3xoCt3XbMtDqUP2EdtNx2zGYHA7mP9FHi1/Gz3NdLTVLLUzjTVDab6ngOIOhrvtdVWW5XYHZrXVl999dxuzuECTLLEohgEOg+ElfIYPpIPwyDwWzqOc1C2MnW4jkELMhpDhcGNyX/IIYckMiumO9n5to2LiEa6mG4uUpeY5iW6qxqSreuMRfkwWzFVyt8Zka3rUFzqqX0GFNvYgx2RRgX5pSM5h/I4CweJ6UYaAydXP2WLOjo/mBGJOBP9gk+RhCWOZBs7o1MXo6sBK6ahJQCVWV/l7L///jkQ1YHA1v2nB9GIBPcine55z3teWXPNNTNCcjBOGeCYNGJUI1Qp+ld+8PjSseg5uBdpxNrE2QxYQexNfSrbfY466qhsDydXVwMopICt/PBp6gO9xrmDf5Hfx/o6dccJtVndOFxM/3PA4RiuqQMdVNSAcjgSB7Oln+3BBkjPUQ1CZgKc2swpqLlZb3YU0/bUyZJ+zLgzGVF0an1h1e2yyy6Js1pSxcd/RwEBX0ylm1bhPBBOoHMwEYyqlG+ElJ4YuSkWH2G//fZLp2XcVYx6Rmsd4DpnEr2WJIwN98GUVz4MO/dh6NVIjj766DQI7ddpHAPHgpHhMXAmLAt1ZnBEJBX1gnyUv5sJMBisvVVWWaUXnUwzCSfgiOoND0bw+jiOkR/Toor2kyBEFVMnUp3J/erUWhQ0CyAGL7wM2DDOTnAKOQn9i6AipOiiLaKj9nOMWH9keoMXlJl3KDJ143hYFvgd8uhP9+FM+phwPHUyENb+EvUMXi960Yuy7gYs+QOok3ksKdTTYGhgI+yBkxvIDaDEQMReJpoBZYJJfsz4Awhk0YgUSS+F+rJQ97BhWLFIt9iOduaiv3Ie/O6F2oO9gFjqYYGFaBhaYrdQgtCAILpIfSjis3JjatCFMXRhiF0YS+K6EF8nW5CGsXRhcL2Ff0wvEznswQlSEI6ERW0Yexcgly6mR11EmC6mHvm3NvWdSJCOYMkQkIj8/qwQMJasWxhIXvfQo1/CKHoPEXynTe5BF1WwItQbmiyMs17Od3lqWmn6dSuBsuieoExJQ9xH/egbd0K6iLTJvKh97Jryap3l0RfuR0/yw6OFk2WZ9FfLzg/xQx4SM48OycmDrBg8emVWDoZ74GvUe8qDq+H+rk1UtjSDyow/GseSizDbxdQn8bxVyYM2oKarHeh3nymnfqbsGNETsxVgyURjXXvttfkI3tM33/k7F2OUr+aV32cG4qlUUIPSGPodL28y7oc8jKBKRI0upm4d1LJ38BSIYiy9GP27GJXzTwGeAAYxaJG/r2kLI+CcMVInHizm74lPljbWWolFjsiX9XdPBuJJlHzqMjY21sVaIu8N88VxtbX/P08YnAGi/6lh1akyvEj/5/o9/eCSQzpHxOhwzenIgBHROdFo6mBAC9pT1qv/3rUcZTN2qGh/Hlkrnt6yD7bBIfvz1HroW4cYAMVg1BuQ1l577c4/A9ArR/FUkcgf66d8Egy1dlUg1nDiY2mRdetvY/+9MvMAP1aM6cRhA6Sb9UkYDgNF6aHgmI7k36kYCWeJNVQqO8J5Oq0ogdvNSHHqqAGbO+b+WQbDJ8pVFicMZHB3+umnd0cccUS34YYbTqoT91c2RyHqJLr5Y7RTPkS5mO8n3FKdjbpHHnlkOlksqJO3h/sda6rsfNGLwcWUNQ3A41r30AZRCmRT/f05gfGKEhxDW+TF7OOoMbVMAxUd5Ec6qo+ujcoisihZ6UnSmDVwlnXWWSdBmPShberse3qKNUU6AN1yJJxBhomuxFBj3Zq6qxGePhg55jtxbw7kmjrJox0iusfzBhEDknvrS/l91jbcddQov8e0MttoIBHFMdeD6tvFA6NkthsMcQfZQjzg6mLN1MXULvtWfvqOtVbWSd3Vz/VBpdGJBtVUSzehBozgnFy0rE44YcIFcHHGp3kLQMfzuolG7ngiOKv+iD5TCm+RaaY03+477zTQItO869LWoJnSQHOmmdJ8u++800BzpnnXpa1BM6WB5kwzpfl233mngeZM865LW4NmSgPNmWZK8+2+804DzZnmXZe2Bs2UBpozzZTm233nnQaaM827Lm0NmikNNGeaKc23+847DTRnmndd2ho0UxpozjRTmm/3nXcaaM40gi6NLee5Pym2d+fGPEXG9vbcTxQwjtyYZ8/N8hAb4mx4I8F6GOqW9kUBf9rAaM/TsBJb4XNfVvAUugC+TJrdDuFgR0z6/URf2Mx5+OGH51exrT43Hk6UbiavNWcagfZtxAugRxcwjtxMFiCULrgMXYBMugCP5OY1W6qXh9jhG7CVvJUNhsNIsBu6oCHldgqb9YYV7bbDNrgUualvsvx0Miyt1w5sGxntn4I34LizTWbcmSgnCDS5uaxuG56OkoLTllu/RQI7TIN2k8oPXFQyBwJS0gVYI1kTgXLKCKLj7UJldDqqjqaBqMrrdpHiK9huzUCVa+ep3bn9EtCV3NVrx6jdp4Gt6gJJlTtSbZOW3u5OjAnbxd1fPW2ZZ1S2W6sb4CMGBvgmsXN2bGwsd6FyTmLvkC3o0pNdd921l8YGPfuL6u5QddBG5XLmIDEl5NPWcJFTW9TDlvNzYuevncZ27Nr2HlCRLD+AKFknu2s5AdE+O1kDX5YsDbrFmQhsVu52tSuYHmyrt/MWb8MO16ANZX67nwN60usL/S5SSWcHc/AG02nOPPPM/ByAmmQ62BGtjbap04N22F2rXdqizraiBywn26nOdjATA54+VlaN2Lau27nrFeCV7OfAlnWBIMs8Q/+IhsyoXHTRReAC+YLlgtuK/f/JsItOGbhuwTYosQU804eBJDLML6GoZNgFZCMpPq6h5sQW9HL55ZcnPcg1fDpUIQIThQVHMNfUB/0ntkOXmG4k2io6Mr/3A70IASm2R5dwgGT9AW3i8OH/QXZBVsFMBbylRxeCpsLLQ9wJAythzAl/RDMiqD1YbgRCC+Eots+X2FqeBCNkHvw3EuTbvI50hCBEd/BeRN3QfyC5IM+ItoYjJxmJ/vHkIMrQjjACw/CyPWussUaWdc011yTNSJs2jvvj05Ew2BJch6xPOH5eC8ctMSVLBFlsRS/y4v65D+KPfkYF8hnuTLvcW58Q3Do0IzizcMokENFNOEx+r3/0SThrEpJcxNML9kPW2X3C6QoMGcKSvtKPlbBEl8G4L9qmP6HV8BnZIixbbHXP+wz7Y6W48awQbARQDCOJF+YA9oLIgL8wlYhwe++9dyazl99oQ7ADsAeM8qKAUcu6wihshDV6GdXAPyrMBXoZ65wYfUUUo5lRE3cA1QivoApAClkrACDKNTJHR2SEwE8waouAyEJGQ+8YB+phLWWElRcIxNrAyB2OmaQgUduLbsIgM62oi1GgnjgT6i+aYBz0izoQpB9sCTqp66nAiiXFx7RQJKO/KvKpt0iAM+F7ZeNViELqhxhE9JFoC4ojCvULPdCfPlCmfNqqPP0gemFJmLIFfDKnh6JRADKzPfgNysdi8H2/KNt2ebMKL+s87Au6rlNC96InOtW/QDIEG0LbREN6IfKYqpsB0Ot05H8WMZ3cI8hDocR0zJSFIoN3lpAOxCCfAfx9Z07PEE2rJpJq4DqOsonP7uEdmQcwwz0Y0QknnJBKNb1jvAEszDzSy1/rxlB1KsOSVl1NYXTmeEHTAfwwreAwwQDMshmSaaA6cuIY3RNywpDcy/fq6MXYpHXdlE9HY4+bMjLaKqYkjNsahaMBkEwkKEjyIf4Qhsm5GRVjZuxVR+7t5d7agThUxecKianOp74cD6DEdHG81HKlI8ruf3dd2zkBRw9eXtZP+VfFlK0ixKpe5K33BLaBXjO9NFhWx6/9V+9Zyzeoqj9CkgE3oJS5zlVmcP5ysFwajsVSO5OK8fBqeCo2jMQUIJMb3YgRMKZ6OfIh6nhy42kZoo85t8ZCPzHSfjHyeBFKq585jbIZj4Wr6MUIHQjASRmz348//viMEuojEtWOUJaRfY899sgIYKTzOwOcTNB66iEEDBLRyGinXAYvyul4ZCFPvhB5RCnCiDkvx7HO0k5rAov7mJZm24y4RF2QijzoMDBos/WEOhP3CwRzPpkzGMCCMSaRlQQAM41IedZMBikOYQATCa2zMAXpAjOQU3th66knoV9YrcBBJ5bLNfW3VlNurQvn8JJPW6szmi1wGFFIW5GNUJQMENrjXkQ+aQnnEJ1FJDZi/cdGDIgXX3xxL516y6OfA+2c/UcPZgdmEGhMBjZlB/gyr+UNpvljqZ1JCGWQGjgd0fmkGm8tQ0foFGVzVmJUZ8iMb7zgpdXIZBGNs0aMXkY7U0UjUVBV8+gaUyNKdA+KhZTSgdqhY2pZppyioadcUF8cU/rJoqN7QlXF/LuLOXoOMoENTuMxHYT7Eg2MqB6aiFAM16BkQAJr9OCABJ00DUVEEUUMJAxNO0hdqIu0HmtzDvkNOiKAp4tAjsqhT+1lQDXCOaonaLG9wcMgAH8lD7yWgUBEFB3V09SQqIM0xJ8DGD1jrdOjWA+lo0N8GQTVRXpGLIoxXJHBdQ9nTOlN5z0coGft9yBGfigvYpBVFlGO/totpmjswSzB9NDLNJy+Oai+9NBElNcX9IGhx+HUlS0YSOlGtJ7IrvKGA/6YcaCKyENxGsohGIU1AkMzhdFQUzORxZyXIVJgk6aB2aaBGXcmI65F6lg8AhaljDJGFIheI7wHEx4SNGkamO0aWOpp3tI2sC5IzdlNp4Rdc3vTqOlOHZe2Ti1/08B0NDDjkclayZzeU7D4O8h02tDyNA3MCg3MuDPNCi20SjQNjEAD//0jzwgKakU0DSx0DTRnWugW0No/Mg00ZxqZKltBC10DzZkWugW09o9MA82ZRqbKVtBC10BzpoVuAa39I9NAc6aRqbIVtNA10JxpoVtAa//INNCcaWSqbAUtdA00Z1roFtDaPzINNGcamSpbQQtdA82ZFroFtPaPTAPNmUamylbQQtdAc6aFbgGt/SPTwFI7U4VcjKxGc6wgu4ORdXAYqmA6IOvMtNgrhvtAAFHANAcV/RpsucxXYS+D5l2o6ZbKmdByUDJhnpZWoKgQg+aaAJIgAFUksfqj7CCYzrSceuqpSTxVD5g0XLhBBT4LFQnRCWilydQaWDFIPodNnWzxFKgvnAjGCkvu/PPPT4zvdJFftq/juyHXoO8Myi+DjLLl3ejJeNBvODlCDbqN7e+wUxh8QUBNyg1clRFb3RGJ4KgQjEQZ5Bq4Yhw6RBzEGgw8gBffI+n0t/Gggw5K8o7BAO4Y5ebAAw9M+s1aAZasu4cx59CDvItcUGFQXGhAopio4V5Bjc00UL9BHk1HdW/53JuegCuVhdyEDkVX6oTqI5/2ujcEgHrh/OFswAKg9nAUhB+6C6pp3h9xCa1HW90HTchnaCz1qJSgxS2hXelpIKYCQwv0bfDeFskXnVYgiJdWYjpS4I0DIZVY3qnKC25bYoChf2NcSARvwB/Lfvvtl3hh+aF+g8dWgptdgm6URQYvrYSBlHDAfI/BIDG9wZ0oAaNMRG7A6xNpHI6W6cIgy5577rlIlYIZl4hhuF7ivgHMLMGmS3RvOG0J9lvWBVI4HC7rGIZcAp+VaYOhlxjgiHAlQIyJSlaH4MCVQJaVQHeVIDgV6Qisb7D3sk3RkYn4dV9ptAc++MILLyxBdMq2hcOVGKCK8oOjnZjkoEEl7jhQWyWwXlmnwKKVoNaWgNgk7jicPpHNedP2Y0oNDAVUMfoDRBrlwqh6DukDDh0WGUg8thw+27AStc2R02iJvSb64ajBBi9JRBbREWgfMkx0M+qDPIowULjqDdAiImGogbaA1osIIpipmtEcSgyfTTojsrZYP4gMeHGVx1frs9566+VHZUgr0jiOBb8O7BG2Nww70cKVuGqUB0+kT1GVADmKFNZfoPSmj7sFFw61iT7oG7eOnjH90GndT7vlgUkzLdNufD7RDqQRJ06UEbn0D2qqCC5K4W443gUAEmySjpCgTAkBLklFP+cv7ccSNTCUMzFCa4HxjlTvwMkYHEqmaQiDHEZMYbyAH7Hy3G8qR1I+J6mdzokZZV1smwaBEJraqA8nUqYpkKkggijDYWzyVSMCVmS0DBHckBEyZoYGyqie4wVRlOMBOLoXeirSKeppfzvcw1StH2QJymgwIWuFUxPTOPUArNTGQw45JJ2QbqoARao75zKNBXPk8OrHybSpis+gmxW2qH6uuS/qKdFm5TUZXgNDaY0xMQzHiUwkjIjRIaISnTLMC+LXAw0dKlKIHIMIUGWV+rkapmjlGhC/w7LqusnojCbK8XGqtYsD1Py1PJBMA4RFuDyccnyamhZaWFRCG8UD5HR+xwC07rEu8aAC7XW11VZL9rfPHA6hSbsZNycg8Micxf0NVMoVfURbpFVRicMZOKwJtcdxM57CaQ8dWOeRWmeRx5EpotphsVxGUfW5Op08NW1mbD8G10Aob2iJRW4ehRKjZi+v9Ujwn3u/D/shjK0EOrj0lzlIGdIHrLLEo+lMvsMOO5QwpFzHWOPEtKeE0ZV4mFAiyuRRJhIGn7pEZCjWQ/EQoUQ0KGGkJUb2LCcW8Xm0iV+Ub+1ivRVRKr8f/0M93M9RJVUcaWIdo24RCfMe1nPWauEwJSJOrvesnazrHEejXvUYGeXEVC+PYIlDAvJIG9esd2KKlmvLiCi5Zjr22GOzPfHwINdTvo8HKSVwwXncinbFw5FMG86daa2P6Mr96nEuMSXuHcfjXk0G14DRa1ribBwLVQvwmPqkYUyroP/PFFFhabJPmTdG73Ss/oQMiVGTGJ37v1rss7OVpkqzWKb/v+DhxFicXRRTwBJPC9OBIhKUOLAsjdu5TzFNLRFlJixCvqqfAPWn43mocMEFF5SYMvbyGDhqe7SXuE/N20sYHzwUaTJaDUzbmVQj5t/FqMpAmkyuAQYdC/2MgrF2KvEIOg3cgV8i4prx9C2mhJMXMO6bOEMoHVKE8xS1yezQQINQDj4jXuqUMRXMdZG1URXrHQ8LPCQZRiYqa5j8Le3oNdCcafQ6bSUuUA0M9TRvgeqoNbtpYCANNGcaSE0tUdPA1BpozjS1jlqKpoGBNNCcaSA1tURNA1NroDnT1DpqKZoGBtJAc6aB1NQSNQ1MrYHmTFPrqKVoGhhIA82ZBlJTS9Q0MLUGmjNNraOWomlgIA00ZxpITS1R08DUGmjONLWOWoqmgYE00JxpIDW1RE0DU2ugOdPUOmopmgYG0kBzpoHU1BI1DUytgeZMU+uopWgaGEgDzZkGUlNL1DQwtQaaM02to5aiaWAgDTRnGkhNLVHTwNQaaM40tY5aiqaBgTQwbWcCbIQMXuhSj5S55pprUhWAjgCUoJAAlvQ0UwJ6SYLdk+8w0oEKy8/tx+g1MC1n0jk777xz8rORV0ch+OAHH3zwKIparmVAOdMBIivH2WKLLZLEeu6556aOtt9+++Van3ozdXG0DXE6h+NknPCx++67z6iD1/rNx/ehj5S57rrruqCmJubXSBcnNOQRMPXolOkqCTDfES9xEkMekQIqP4jA+gaJtQuoYvLNscYvu+yyPF4FTB93GxYrqKUJ8F911VU7R8oYEBwngzeuHUE+zeNZRBMQfcerSFuPlHGIgCgEeN/PGQe7xyOHOVamfAGd7AIwmUD8oNx24P6OrHHkS/9RLsoLkGQe3QLu75gZ9ZQf3B+7XCRRT59dg5vWBxDU6hrMvW7llVfONjjfSnmOmMExd19th0F2kMCmm26ahxvI40CBE088MaMoVDOduA8GusMHIMikazKEBsIABhbkUYjhKH6xVxjVwOUsKSESqeNfttxyy0QcLymt71BZw8ALfPChhx6a9dpkk01K8NB7R8rAAEckze/D0LJIR8pACMd0LPMH7zvRx2GseXRLHE5Q4myiPFIGJBK+ObjlZa+99lqkSoi26KoxzUtCK3Rxv1QKLPyw+4UTJKo5DDaPsKFLx8FsvfXWJXh6Jc52SqRxnIJR4ryqPF4mWONZlx133DGLdqTMAQccUALkn/3hojbuu+++RVoY54hM2a44qyrxyvDV4SxZB+nXX3/9xEIDWsYAlIRXCOg4mKHEaR15xE09Jkf6JlNr4H80xCkc0EkM0Zl5kNZESU13wO3DqCf6euBrTnswqopSooWpiWiwJBFZ1C+43lkHQHtHqxxzzDEZtYzWTpAAfwwmd+9IGSO1dCKLaGAkFh2kMU0yshuhnRxhxD7uuONyBO+vSz1SxjVp6mkSNY32qJ8I5Xgc4HxRIJyhc1CBiBFnXeV3oqyjZNTD4XGivamagxJA/IP+2m277bYZnRyQQJw2IpKoozWsKR1dRNfna911181I5bQP0c2xMvQhYukzctZZZ+U0VZ5gnaceRWIRXjRsMpgGBnYmp1M4FoWCJxLTj4gM3R577DHR1wNfcwJEHOqVZwtxTlOtqYTB1qNgGAtH8CCA1CNlrMlct4Yx5TI9dY2xOo5G/X1fy2FsyjVlchpfRJYuDiDLNYfTPvqnerV+BhKn7Tmjqgq9OftI2coiTrZQvrZyJqK+nJpwKuV7r/UxwDj1z8mC6l/FNJQTm5o6hWPvvffOY22cYVvrqBz3I64pQ13USbvdw2mDPpsmcyqEWe9NBtfAwA8gdLojTRjGeNEx55133lI5ktE7phzpRDHl6SzgB3EkdWEsVfo/u+ZIGYYaJxHmqO9JmzWCp20ig4jlAQJjYzwMvArDExkdfmak9pBBxJzsyBXHuYgs1h7WNSIco7bod7Tl8ccfn0e9OL7UOVGMub++9bPrXpyHIzvzScTQB3E6Y3dOHJDm2Bj1tm4SYUUgx22KsJw1TuCozciyPG3UPpF2bGwsjxoVqdTPWs7BaNpVHUhd1KHJEBoI5Q0tMQLm/D5uk0dC1uNchi6oL4M1hGMqh5VwgjxhwpqFxIHGuY6yjgkDy5MvYtGf64YYgUscCpbpYspWYrpV4pCxPIIlHDfXTPUoUUfKxNQq08aZSHmkTBhzifOZ8tpkP0455ZRMax1ijeQYF+J4GUdhOu0ijDmvxYCR6yy/WLNZBxFHZVo7ORYzpna5LlLPuoYJ587TL5QVjpl54mFCiSiVaWN2kNfiyWK+Kwvk33E49EMcv6k9jqSpOtlggw2KUzbCiUpE7BIPZzJt+zGYBqbNGndol5HacZlOoJtJMYKaopD+z0ZXUzViGiPq1FPzXBMNTWe8RCaHS4faFivLNVMpT81Mg6YSkdD93KvWSx71sbYxZSPKrffzTkRDn73HQ4PeekvdRKoq1nrSWX9VcU10qeX360Kd5K/3k2d8Gf3pfVYHryaDaWDazjRY8S3V0mjAAw8Ob/rYZPZroDnTLO4j0YH0R7dZXN0FX7XmTAveBJoCRqWBgZ/mjeqGrZymgfmqgeZM87VnW7uWuwaaMy13lbcbzlcNNGearz3b2rXcNdCcabmrvN1wvmqgOdN87dnWruWugeZMy13l7YbzVQPNmeZrz7Z2LXcN/B+sFK2b78W0VQAAAABJRU5ErkJggg==&quot; alt=&quot;&quot;&gt;&lt;img src=&quot;data:image/png;base64,iVBORw0KGgoAAAANSUhEUgAAANMAAACZCAYAAAC1xA/TAAAAAXNSR0IArs4c6QAAAERlWElmTU0AKgAAAAgAAYdpAAQAAAABAAAAGgAAAAAAA6ABAAMAAAABAAEAAKACAAQAAAABAAAA06ADAAQAAAABAAAAmQAAAAA881aJAAAto0lEQVR4Ae3dCbz9xfjA8W/Kln2XVsoWZQ0h3UqbsqVSCm0oQihFSUJlpywR2pA92UupJJEUKWQrESLZ92X+z/vxn+P87u/e3z3n/s7vd7d5Xq9zz7nfMzPfmWeeZ56Z773zmRVKSNekaaBpYKk1cIOlLqEV0DTQNJAaaM7UDKFpYEQaaM40IkW2YpoGZo0z/f73v+/+9Kc/tR5pGpizGpg1zvT1r3+9u/vd79795je/mbPKbBVf2BqYNc706Ec/uvvgBz/YPepRj+rOOeechd0rrfVzUgOzxplob+ONN+7OPffcbo899ug+85nPzAmFnnHGGd22226bdf7Sl77UHX744d2d73znbrXVVutWXXXV7slPfnJnCrs85D3veU/3hje8YeS3esUrXtGdddZZ3RZbbNH9/e9/H3n586XAkTrT5Zdf3n3729/uvvWtb3X//Oc/U0fXX399d+mll+brxz/+cU9v3//+93tp//znP+d1a6Zf/vKX3Yc+9KHu4IMP7l7wghd0//jHP3p5Jvugg93vF7/4RffrX/86k1111VXdH/7wh0Wy/PCHP+xdq39eU49rrrmml67mueKKK7q//e1vvevqqH3j5QY3uEH317/+tfv3v//drbzyylmHTTbZpLvooosywt74xjfuttpqq+5f//pXZjWNvfLKK3vFVONUN+X0izb86le/ykv/+c9/uj/+8Y9Zzve+973+ZN1f/vKXvK+L/WX86Ec/6uifyE+X9KTN/XLttdf22qadte+k8bs23vzmN++1oT9v+9ynAX+0HZVsueWWZcMNNyz3u9/9SjhFFnvqqaeWhzzkIfnaZ599ereKETvTrr/++uWSSy7J61/96lcz3SMf+cjygAc8oKyyyiolHLCXZ7IPMRqX2972tmXttdcut7nNbcpjH/vYcsc73rGEEZRvfvObJQy2bLbZZiWiRQmjKMcee2wWNTY2Vu55z3uWu9zlLmX//ffPa2ussUZZd911y+qrr15uectbluuuu67EtLPc+ta3Lve5z31KrOvK7373u15Vvva1r5Vdd921vPjFLy7hJOVZz3pW2WuvvXrf+3C7292uhJPmfdXzTne6U9l0000zzdOf/vRy73vfO+t+i1vcokRkzuvPeMYzSkS2bM/LXvayEg5fVlpppaybttEzOe2000o4bKalryOPPDKvR5RP/bnfCSecUGKgKXe7290yv3aFg5dw8HLyySdnO+nm/ve/f3Ev+ifhzKkb+fXDLrvskrrML9uPxTTQLXZlFlz4wAc+UB784AenAQ1SnTe+8Y1lvfXWKxFJymGHHVZ23HHHzLbTTjuVt771rUV5T3va0/Iao+BwjPO1r31tXjv77LPT4P3CgBkPB2RUJ554YpbHQQljj5E8P/sRo3iJiFFiBC8x+qcjjXemBz3oQSWiSRpzRJHMyxm+8IUvZL1e/vKX57X3v//9OYioD8NWHsddccUVC6eNMbBElC+//e1vc/D4+c9/no75xS9+sURkLE996lPLUUcdVY4//viy9dZbZ5kGg3XWWadIy7E4dUSoHCzUnYP97Gc/y7T0dfrpp5cVVlihRAQt73znO3uDjPK1s8nkGlipL0jN+EdTkUMOOaSz9rjgggu6GIkHqpMpVESlzpTqpje9aRfRLvPd6la3MljkdMta7GEPe1hOWSLC5LTnBz/4QRdRtLvRjW7U3fCGN8w80kdkyt9vf/vb57TpLW95S659IoJ1j3jEI7p3vOMdvXqpoynQksSayVTq6quv7iJC5r1NC7WXKJN4+BKO1YXjdKZo4XBdGHYXA0Wuu7RvzTXXzHZGpOzC0bJ+G220UbYrnD/TmU6bCsqvPdqmDp6WRvTLe8WAkn+KUI+IaHntlFNOyfeI2DkFf9e73tW9+93vzmt1qpe/tB8TamCka6YJ7zDgRQ6x+eabdze5yU26L3/5ywM7Ui1eZ1dhQMS7133ve99um2226WIa2X3605/uOAXDsQaytnnb296Wax55GG9/fuUeccQR6UCcIUbyzkJ/ScI5q3ggweEi0nYRGbrzzz8/68HwPahwr7qG+cpXvpLrLkZ/r3vdK/Vg4a++MbXLImubvNMVsb4j2uK6QeCBD3xgDkgxRe0e+tCHdjG16zmvtBzZGs+ara7nIoJ2MeXuXvrSl3YHHnhgrrfucY97SN5kAA0MNvQPUNDSJjEax9Ski7XL0EUZeY3apEYYnxkbQ4l1TGf0julfjrjbb799PoE7+uiju1ibZMSw6I5pV0aZmFbJnmUqTyTzEOExj3lMGqgHJJOJEf+kk05Kw/YwgDN++MMfTsPdc889u4c//OGdNCJVrG/SeV/zmtdkNBY9TzjhhLzXcccd16mnBzKxrktn4hCc3Ysj3OxmN+tiWtfFWjUdhiNwwt12262T/wlPeEL305/+NNvNoUXtKj7TDafh6He4wx2yXqKyaMXBn/nMZ+Z9ap72vmQNrBAj2Zz/r3GjrGZwgjp1YsT9n30vssTDgDRCBukpWKwpunjYkE+tGJyXcnzPqLwry1M+TwvjAcUiRjleve5Z61Pzyl/F0zX3FW1cj3VOF+u5dAIRpRq8+nrK6HcRTVmMX/1I/2dP+bxEOqJcdZefA5oSEtfqQNGfn9OrEyeX11NMEfg73/lOL28W0H4sUQOzJjItsZZTfNlvrJN9ZozWG/1idOccZKJ1TzU83zNKr6nE/fvrMD49x/CqIqJyHA7dL+rrb1X9Uh3Jtf7P1kF1LVTTq3ttW/+1+rk/P4etTuwR/XbbbdftFtGtOmHN096XrIF5EZmW3MT27bAaMOXtny4Pm3+hpm/OtFB7vrV75Br432R+5EW3ApsGFpYGmjMtrP5urV2GGmjOtAyV24peWBpozrSw+ru1dhlqoDnTMlRuK3phaaA508Lq79baZaiB5kzLULmt6IWlgeZMC6u/W2uXoQaaMy1D5baiF5YGZo0z2R5dt3AvrC5orZ0vGpg1zmTfjf0073vf++aLbls7FpgGZtX/5tkG8MQnPjH/6/rtb397d9e73nXWd4ftCkAw/lPc/qK6r6ry/2z5WBYCtOK/2OsGwfH3sA1EnWKLe6ap/xU+Pt343+t2DP/Jrvz+jY7j07bfF9XASJ3p1a9+9SJ0nEVvNfVvth3YGoBwdOaZZ+ZmvICfDLT1YerSl02Kz372s12wJHIvkU2IyESmqzYBErtnq4ONqgYcBWfw0EMP7cbGxhYr1nb8F77whd2nPvWp7tnPfnZuHnz84x+/WLqJLnz0ox/NjYX2PulPu3SbDKaBke5nMjL37wEarAr/TWUkNJJyJu/KUR4Hm0oCFpKb/GzeM1JjJuBI2OpduQ92rDLsIAN1QUvKLQby2cpuXxPjNxLb+m0fT1CNkisRlKTcb4Q4+5Of/KQL0EmyFGqdjPhGb2XU/T/S2XwnagWsJMuR3m7iWobt4NaJdtfa8uD+drvK5xpkGUOu0dl2d3lNhe28PeaYY3IPFKNXNztq7bLV9m984xvJubNb1k7autepsiUwMmzld3+8CBsL6QeDou7gVQ/6bzKEBsKIZ40g8QRcJFFd6EGDypve9KYS+2/KS17yksSMQWsddNBBJYyhBPOhxDSsxC7UEjDFEgZaYjt4Yq4CuFJe//rXJ56r4q3WWmutEkaZyCxYMKgwFKMNNtigxFbwJPwgHFWJ3ajlla98ZQnIShKAXD/ggANKcCLyftBZJMAkeW/XY0drCWBKiWhRgg2YeC34rpjmluAvlIhuBb4snDSpRGhDMGPhQIkqiw18iUSL6F2e85znFLg0adQ9HKi87nWvK+Hk5bzzzisB9Cyf+MQnysc//vFEisX0ObFlqEvaFqZSYiNg6kR+1+gkttInHiwr334MpAGj7qwQnc1gvA8rUF+ckDDC5z73ufk5GAYlyELF9zvssEMaSgBKkj8HbxU45jRWODAOSGI7eWGkBC4rCD1l3333TWcK0EuJyLUINy8T9v2ISJEcOhivj33sY4XDkoBqloiSiQqLCJEoLTxBvD0YMPWCF4ut6+lU8jBqXL3YmZv1dA227MILL0zHdA8v9YpoViK6peN897vfzTzSyx903HSkmD67lO2DRrvssstKRMi8hnMYs4CsV15oP4bWwEineUMExMWSgpUEm26R7diLJZrkgilJpff4bCpXxZQxjKa7KuiokF1+j8iRTIe999471zhoQP3TU9Oi0GRO36xPTKne+973ds9//vOzLNMq06mJBGzF9ElaArEVIM7uVa96VWdq594XX3xxTjk9wYT2AkRxP1NTU0afiW3rpnwezJgCElAYddJOEqy9BMHEYJF5tQO5tZYhjd+xLup0r04nleMBibT04uVak+lpYNY8GrdI7+cSDNMcBlCNwHs1NOsJhsRRORuHQAiCb/785z+fa46IhF1Mb3ooZHmrIcpvzQZ6UtdTQW/tAvo4YfWkf/Ob35xOCyPmFVEy0WAoSOpm3cIhPBwAUrGm4ejEGssazDrOU7WITIk/QwyKqVo6Js4fpqB6Se+BwSc/+cnusMMOy3VT/VsdB9QW9+Sg0F/aTB945IhEvlPnKv2f67X2PoQGwnDmvFjLWDsQFNLg4OVn6xW/h9EkOTUeECQ22ZQookdOfWKUzikgsqlyrJ3C2TJPRK4SfL38XV5TsDDKScmmiKembqZrVcJRCqKrqRcssvuhtYYj5BrIus4aCi46jD+nc6aaEUVy7agcVFYIZXnrFDYwXiUeqOTaLh4aJKE1ntyVeGCR1FbTt3jal6944pi4aiho007oaWRX6z30W/qp90BybTI9DYz00fgQPjwjSf3NxVSnPwK6BnFlVA4VLvJdfyU9cZO2Tif7vxv0s0jh70/901AIMdf7iUXu5fr4v1F56lanav33lNaTN1M80ar+7Umb+qev2uf+kGJNRq+BBeVMo1dfK7Fp4H8amDVrpv9VqX1qGpibGmjONDf7rdV6FmqgOdMs7JRWpbmpgeZMc7PfWq1noQaaM83CTmlVmpsaaM40N/ut1XoWaqA50yzslFaluamB5kxzs99arWehBpozzcJOaVWamxqYFc7U/sFybhpPq/WiGphxZ7r00kvzP7JtITj77LPz/9/8N3OTpoG5poEZdybHPtouYCvBpptumlvC8Q2wH/wDZ5OmgbmigRl3JhvSiA10TiXHbIidp90+++zTxXaBPIHd9cpVmCuKbfVceBqY8Z22dbuATXGxR6cLPkMCPmL/TxdbxrvYWp6b2hzgbBOfzX0oQNLPFrFZzzYOmw6f9KQn5c5XcBdbHmziA2GxOW8YURbd2FJhwJlsZ++SyrQj2Nm07j+MoBvZpiL/NttsMy2wCpCMl8FxtohNlFtssUVvi8pU9TKA04U+oMPxB3Yvln9626D+mwuopMJFvI+NjZXNN9+87Lzzzr1ibdDbbLPNEhJy2mmn5fUg75SYymVaG9WwBz73uc/18vR/wGoA/IiK914BquxPMuOfd99994IjEUafm/5iZ2yJrejFdXXHl8CiGEZiB27yLGJberIqhskb0+VMDsBy0kknDZM104bBlXCk1Hft32EL+chHPrKIHQybf9D0l1xySep6svSxuzr7wPd77bVXiT1pkyVd7DoeycYbb1wCa1DCERf7fvwFo+dSiV2axHtstc6XXaRVYpt077qdpKSmlS7WStlp/c7ESVF87GqN0Tm/R+rZbrvtEhxSy6n38I7+o/EM6eSTTy4xNSyBrkrASE0HrLLRRhslJEUdYhNeUnjAWBivHbIIQQg+iEQGh9jqndk59eMe97h8XXnllbXIfDdggKcgIBEkI7tgq+iI2Caev15//fXlKU95SpZzxRVX5LXAdJWddtopB5zaacGGyJ24YCnBhijxcCadk0EAvICk0IN7q39sW8+ykJLsvEViAlsBaiEcC5lJufIF5izbiOyEhnTGGWdkOjtt7eilH7t91c0gGNvsy7bbbluCZVGCXZG6AZshBhL1Znh0R+RRVyK9AdUuYbuR2QRYjH7SX74HljEAVed1X/2NJHX11VeXeOJb1NWuYWUB1BCDlV3Q9K9daE/6ONbc2b/6cNVVVy3xoCt3XbMtDqUP2EdtNx2zGYHA7mP9FHi1/Gz3NdLTVLLUzjTVDab6ngOIOhrvtdVWW5XYHZrXVl999dxuzuECTLLEohgEOg+ElfIYPpIPwyDwWzqOc1C2MnW4jkELMhpDhcGNyX/IIYckMiumO9n5to2LiEa6mG4uUpeY5iW6qxqSreuMRfkwWzFVyt8Zka3rUFzqqX0GFNvYgx2RRgX5pSM5h/I4CweJ6UYaAydXP2WLOjo/mBGJOBP9gk+RhCWOZBs7o1MXo6sBK6ahJQCVWV/l7L///jkQ1YHA1v2nB9GIBPcine55z3teWXPNNTNCcjBOGeCYNGJUI1Qp+ld+8PjSseg5uBdpxNrE2QxYQexNfSrbfY466qhsDydXVwMopICt/PBp6gO9xrmDf5Hfx/o6dccJtVndOFxM/3PA4RiuqQMdVNSAcjgSB7Oln+3BBkjPUQ1CZgKc2swpqLlZb3YU0/bUyZJ+zLgzGVF0an1h1e2yyy6Js1pSxcd/RwEBX0ylm1bhPBBOoHMwEYyqlG+ElJ4YuSkWH2G//fZLp2XcVYx6Rmsd4DpnEr2WJIwN98GUVz4MO/dh6NVIjj766DQI7ddpHAPHgpHhMXAmLAt1ZnBEJBX1gnyUv5sJMBisvVVWWaUXnUwzCSfgiOoND0bw+jiOkR/Toor2kyBEFVMnUp3J/erUWhQ0CyAGL7wM2DDOTnAKOQn9i6AipOiiLaKj9nOMWH9keoMXlJl3KDJ143hYFvgd8uhP9+FM+phwPHUyENb+EvUMXi960Yuy7gYs+QOok3ksKdTTYGhgI+yBkxvIDaDEQMReJpoBZYJJfsz4Awhk0YgUSS+F+rJQ97BhWLFIt9iOduaiv3Ie/O6F2oO9gFjqYYGFaBhaYrdQgtCAILpIfSjis3JjatCFMXRhiF0YS+K6EF8nW5CGsXRhcL2Ff0wvEznswQlSEI6ERW0Yexcgly6mR11EmC6mHvm3NvWdSJCOYMkQkIj8/qwQMJasWxhIXvfQo1/CKHoPEXynTe5BF1WwItQbmiyMs17Od3lqWmn6dSuBsuieoExJQ9xH/egbd0K6iLTJvKh97Jryap3l0RfuR0/yw6OFk2WZ9FfLzg/xQx4SM48OycmDrBg8emVWDoZ74GvUe8qDq+H+rk1UtjSDyow/GseSizDbxdQn8bxVyYM2oKarHeh3nymnfqbsGNETsxVgyURjXXvttfkI3tM33/k7F2OUr+aV32cG4qlUUIPSGPodL28y7oc8jKBKRI0upm4d1LJ38BSIYiy9GP27GJXzTwGeAAYxaJG/r2kLI+CcMVInHizm74lPljbWWolFjsiX9XdPBuJJlHzqMjY21sVaIu8N88VxtbX/P08YnAGi/6lh1akyvEj/5/o9/eCSQzpHxOhwzenIgBHROdFo6mBAC9pT1qv/3rUcZTN2qGh/Hlkrnt6yD7bBIfvz1HroW4cYAMVg1BuQ1l577c4/A9ArR/FUkcgf66d8Egy1dlUg1nDiY2mRdetvY/+9MvMAP1aM6cRhA6Sb9UkYDgNF6aHgmI7k36kYCWeJNVQqO8J5Oq0ogdvNSHHqqAGbO+b+WQbDJ8pVFicMZHB3+umnd0cccUS34YYbTqoT91c2RyHqJLr5Y7RTPkS5mO8n3FKdjbpHHnlkOlksqJO3h/sda6rsfNGLwcWUNQ3A41r30AZRCmRT/f05gfGKEhxDW+TF7OOoMbVMAxUd5Ec6qo+ujcoisihZ6UnSmDVwlnXWWSdBmPShberse3qKNUU6AN1yJJxBhomuxFBj3Zq6qxGePhg55jtxbw7kmjrJox0iusfzBhEDknvrS/l91jbcddQov8e0MttoIBHFMdeD6tvFA6NkthsMcQfZQjzg6mLN1MXULvtWfvqOtVbWSd3Vz/VBpdGJBtVUSzehBozgnFy0rE44YcIFcHHGp3kLQMfzuolG7ngiOKv+iD5TCm+RaaY03+477zTQItO869LWoJnSQHOmmdJ8u++800BzpnnXpa1BM6WB5kwzpfl233mngeZM865LW4NmSgPNmWZK8+2+804DzZnmXZe2Bs2UBpozzZTm233nnQaaM827Lm0NmikNNGeaKc23+847DTRnmndd2ho0UxpozjRTmm/3nXcaaM40gi6NLee5Pym2d+fGPEXG9vbcTxQwjtyYZ8/N8hAb4mx4I8F6GOqW9kUBf9rAaM/TsBJb4XNfVvAUugC+TJrdDuFgR0z6/URf2Mx5+OGH51exrT43Hk6UbiavNWcagfZtxAugRxcwjtxMFiCULrgMXYBMugCP5OY1W6qXh9jhG7CVvJUNhsNIsBu6oCHldgqb9YYV7bbDNrgUualvsvx0Miyt1w5sGxntn4I34LizTWbcmSgnCDS5uaxuG56OkoLTllu/RQI7TIN2k8oPXFQyBwJS0gVYI1kTgXLKCKLj7UJldDqqjqaBqMrrdpHiK9huzUCVa+ep3bn9EtCV3NVrx6jdp4Gt6gJJlTtSbZOW3u5OjAnbxd1fPW2ZZ1S2W6sb4CMGBvgmsXN2bGwsd6FyTmLvkC3o0pNdd921l8YGPfuL6u5QddBG5XLmIDEl5NPWcJFTW9TDlvNzYuevncZ27Nr2HlCRLD+AKFknu2s5AdE+O1kDX5YsDbrFmQhsVu52tSuYHmyrt/MWb8MO16ANZX67nwN60usL/S5SSWcHc/AG02nOPPPM/ByAmmQ62BGtjbap04N22F2rXdqizraiBywn26nOdjATA54+VlaN2Lau27nrFeCV7OfAlnWBIMs8Q/+IhsyoXHTRReAC+YLlgtuK/f/JsItOGbhuwTYosQU804eBJDLML6GoZNgFZCMpPq6h5sQW9HL55ZcnPcg1fDpUIQIThQVHMNfUB/0ntkOXmG4k2io6Mr/3A70IASm2R5dwgGT9AW3i8OH/QXZBVsFMBbylRxeCpsLLQ9wJAythzAl/RDMiqD1YbgRCC+Eots+X2FqeBCNkHvw3EuTbvI50hCBEd/BeRN3QfyC5IM+ItoYjJxmJ/vHkIMrQjjACw/CyPWussUaWdc011yTNSJs2jvvj05Ew2BJch6xPOH5eC8ctMSVLBFlsRS/y4v65D+KPfkYF8hnuTLvcW58Q3Do0IzizcMokENFNOEx+r3/0SThrEpJcxNML9kPW2X3C6QoMGcKSvtKPlbBEl8G4L9qmP6HV8BnZIixbbHXP+wz7Y6W48awQbARQDCOJF+YA9oLIgL8wlYhwe++9dyazl99oQ7ADsAeM8qKAUcu6wihshDV6GdXAPyrMBXoZ65wYfUUUo5lRE3cA1QivoApAClkrACDKNTJHR2SEwE8waouAyEJGQ+8YB+phLWWElRcIxNrAyB2OmaQgUduLbsIgM62oi1GgnjgT6i+aYBz0izoQpB9sCTqp66nAiiXFx7RQJKO/KvKpt0iAM+F7ZeNViELqhxhE9JFoC4ojCvULPdCfPlCmfNqqPP0gemFJmLIFfDKnh6JRADKzPfgNysdi8H2/KNt2ebMKL+s87Au6rlNC96InOtW/QDIEG0LbREN6IfKYqpsB0Ot05H8WMZ3cI8hDocR0zJSFIoN3lpAOxCCfAfx9Z07PEE2rJpJq4DqOsonP7uEdmQcwwz0Y0QknnJBKNb1jvAEszDzSy1/rxlB1KsOSVl1NYXTmeEHTAfwwreAwwQDMshmSaaA6cuIY3RNywpDcy/fq6MXYpHXdlE9HY4+bMjLaKqYkjNsahaMBkEwkKEjyIf4Qhsm5GRVjZuxVR+7t5d7agThUxecKianOp74cD6DEdHG81HKlI8ruf3dd2zkBRw9eXtZP+VfFlK0ixKpe5K33BLaBXjO9NFhWx6/9V+9Zyzeoqj9CkgE3oJS5zlVmcP5ysFwajsVSO5OK8fBqeCo2jMQUIJMb3YgRMKZ6OfIh6nhy42kZoo85t8ZCPzHSfjHyeBFKq585jbIZj4Wr6MUIHQjASRmz348//viMEuojEtWOUJaRfY899sgIYKTzOwOcTNB66iEEDBLRyGinXAYvyul4ZCFPvhB5RCnCiDkvx7HO0k5rAov7mJZm24y4RF2QijzoMDBos/WEOhP3CwRzPpkzGMCCMSaRlQQAM41IedZMBikOYQATCa2zMAXpAjOQU3th66knoV9YrcBBJ5bLNfW3VlNurQvn8JJPW6szmi1wGFFIW5GNUJQMENrjXkQ+aQnnEJ1FJDZi/cdGDIgXX3xxL516y6OfA+2c/UcPZgdmEGhMBjZlB/gyr+UNpvljqZ1JCGWQGjgd0fmkGm8tQ0foFGVzVmJUZ8iMb7zgpdXIZBGNs0aMXkY7U0UjUVBV8+gaUyNKdA+KhZTSgdqhY2pZppyioadcUF8cU/rJoqN7QlXF/LuLOXoOMoENTuMxHYT7Eg2MqB6aiFAM16BkQAJr9OCABJ00DUVEEUUMJAxNO0hdqIu0HmtzDvkNOiKAp4tAjsqhT+1lQDXCOaonaLG9wcMgAH8lD7yWgUBEFB3V09SQqIM0xJ8DGD1jrdOjWA+lo0N8GQTVRXpGLIoxXJHBdQ9nTOlN5z0coGft9yBGfigvYpBVFlGO/totpmjswSzB9NDLNJy+Oai+9NBElNcX9IGhx+HUlS0YSOlGtJ7IrvKGA/6YcaCKyENxGsohGIU1AkMzhdFQUzORxZyXIVJgk6aB2aaBGXcmI65F6lg8AhaljDJGFIheI7wHEx4SNGkamO0aWOpp3tI2sC5IzdlNp4Rdc3vTqOlOHZe2Ti1/08B0NDDjkclayZzeU7D4O8h02tDyNA3MCg3MuDPNCi20SjQNjEAD//0jzwgKakU0DSx0DTRnWugW0No/Mg00ZxqZKltBC10DzZkWugW09o9MA82ZRqbKVtBC10BzpoVuAa39I9NAc6aRqbIVtNA10JxpoVtAa//INNCcaWSqbAUtdA00Z1roFtDaPzINNGcamSpbQQtdA82ZFroFtPaPTAPNmUamylbQQtdAc6aFbgGt/SPTwFI7U4VcjKxGc6wgu4ORdXAYqmA6IOvMtNgrhvtAAFHANAcV/RpsucxXYS+D5l2o6ZbKmdByUDJhnpZWoKgQg+aaAJIgAFUksfqj7CCYzrSceuqpSTxVD5g0XLhBBT4LFQnRCWilydQaWDFIPodNnWzxFKgvnAjGCkvu/PPPT4zvdJFftq/juyHXoO8Myi+DjLLl3ejJeNBvODlCDbqN7e+wUxh8QUBNyg1clRFb3RGJ4KgQjEQZ5Bq4Yhw6RBzEGgw8gBffI+n0t/Gggw5K8o7BAO4Y5ebAAw9M+s1aAZasu4cx59CDvItcUGFQXGhAopio4V5Bjc00UL9BHk1HdW/53JuegCuVhdyEDkVX6oTqI5/2ujcEgHrh/OFswAKg9nAUhB+6C6pp3h9xCa1HW90HTchnaCz1qJSgxS2hXelpIKYCQwv0bfDeFskXnVYgiJdWYjpS4I0DIZVY3qnKC25bYoChf2NcSARvwB/Lfvvtl3hh+aF+g8dWgptdgm6URQYvrYSBlHDAfI/BIDG9wZ0oAaNMRG7A6xNpHI6W6cIgy5577rlIlYIZl4hhuF7ivgHMLMGmS3RvOG0J9lvWBVI4HC7rGIZcAp+VaYOhlxjgiHAlQIyJSlaH4MCVQJaVQHeVIDgV6Qisb7D3sk3RkYn4dV9ptAc++MILLyxBdMq2hcOVGKCK8oOjnZjkoEEl7jhQWyWwXlmnwKKVoNaWgNgk7jicPpHNedP2Y0oNDAVUMfoDRBrlwqh6DukDDh0WGUg8thw+27AStc2R02iJvSb64ajBBi9JRBbREWgfMkx0M+qDPIowULjqDdAiImGogbaA1osIIpipmtEcSgyfTTojsrZYP4gMeHGVx1frs9566+VHZUgr0jiOBb8O7BG2Nww70cKVuGqUB0+kT1GVADmKFNZfoPSmj7sFFw61iT7oG7eOnjH90GndT7vlgUkzLdNufD7RDqQRJ06UEbn0D2qqCC5K4W443gUAEmySjpCgTAkBLklFP+cv7ccSNTCUMzFCa4HxjlTvwMkYHEqmaQiDHEZMYbyAH7Hy3G8qR1I+J6mdzokZZV1smwaBEJraqA8nUqYpkKkggijDYWzyVSMCVmS0DBHckBEyZoYGyqie4wVRlOMBOLoXeirSKeppfzvcw1StH2QJymgwIWuFUxPTOPUArNTGQw45JJ2QbqoARao75zKNBXPk8OrHybSpis+gmxW2qH6uuS/qKdFm5TUZXgNDaY0xMQzHiUwkjIjRIaISnTLMC+LXAw0dKlKIHIMIUGWV+rkapmjlGhC/w7LqusnojCbK8XGqtYsD1Py1PJBMA4RFuDyccnyamhZaWFRCG8UD5HR+xwC07rEu8aAC7XW11VZL9rfPHA6hSbsZNycg8Micxf0NVMoVfURbpFVRicMZOKwJtcdxM57CaQ8dWOeRWmeRx5EpotphsVxGUfW5Op08NW1mbD8G10Aob2iJRW4ehRKjZi+v9Ujwn3u/D/shjK0EOrj0lzlIGdIHrLLEo+lMvsMOO5QwpFzHWOPEtKeE0ZV4mFAiyuRRJhIGn7pEZCjWQ/EQoUQ0KGGkJUb2LCcW8Xm0iV+Ub+1ivRVRKr8f/0M93M9RJVUcaWIdo24RCfMe1nPWauEwJSJOrvesnazrHEejXvUYGeXEVC+PYIlDAvJIG9esd2KKlmvLiCi5Zjr22GOzPfHwINdTvo8HKSVwwXncinbFw5FMG86daa2P6Mr96nEuMSXuHcfjXk0G14DRa1ribBwLVQvwmPqkYUyroP/PFFFhabJPmTdG73Ss/oQMiVGTGJ37v1rss7OVpkqzWKb/v+DhxFicXRRTwBJPC9OBIhKUOLAsjdu5TzFNLRFlJixCvqqfAPWn43mocMEFF5SYMvbyGDhqe7SXuE/N20sYHzwUaTJaDUzbmVQj5t/FqMpAmkyuAQYdC/2MgrF2KvEIOg3cgV8i4prx9C2mhJMXMO6bOEMoHVKE8xS1yezQQINQDj4jXuqUMRXMdZG1URXrHQ8LPCQZRiYqa5j8Le3oNdCcafQ6bSUuUA0M9TRvgeqoNbtpYCANNGcaSE0tUdPA1BpozjS1jlqKpoGBNNCcaSA1tURNA1NroDnT1DpqKZoGBtJAc6aB1NQSNQ1MrYHmTFPrqKVoGhhIA82ZBlJTS9Q0MLUGmjNNraOWomlgIA00ZxpITS1R08DUGmjONLWOWoqmgYE00JxpIDW1RE0DU2ugOdPUOmopmgYG0kBzpoHU1BI1DUytgeZMU+uopWgaGEgDzZkGUlNL1DQwtQaaM02to5aiaWAgDTRnGkhNLVHTwNQaaM40tY5aiqaBgTQwbWcCbIQMXuhSj5S55pprUhWAjgCUoJAAlvQ0UwJ6SYLdk+8w0oEKy8/tx+g1MC1n0jk777xz8rORV0ch+OAHH3zwKIparmVAOdMBIivH2WKLLZLEeu6556aOtt9+++Van3ozdXG0DXE6h+NknPCx++67z6iD1/rNx/ehj5S57rrruqCmJubXSBcnNOQRMPXolOkqCTDfES9xEkMekQIqP4jA+gaJtQuoYvLNscYvu+yyPF4FTB93GxYrqKUJ8F911VU7R8oYEBwngzeuHUE+zeNZRBMQfcerSFuPlHGIgCgEeN/PGQe7xyOHOVamfAGd7AIwmUD8oNx24P6OrHHkS/9RLsoLkGQe3QLu75gZ9ZQf3B+7XCRRT59dg5vWBxDU6hrMvW7llVfONjjfSnmOmMExd19th0F2kMCmm26ahxvI40CBE088MaMoVDOduA8GusMHIMikazKEBsIABhbkUYjhKH6xVxjVwOUsKSESqeNfttxyy0QcLymt71BZw8ALfPChhx6a9dpkk01K8NB7R8rAAEckze/D0LJIR8pACMd0LPMH7zvRx2GseXRLHE5Q4myiPFIGJBK+ObjlZa+99lqkSoi26KoxzUtCK3Rxv1QKLPyw+4UTJKo5DDaPsKFLx8FsvfXWJXh6Jc52SqRxnIJR4ryqPF4mWONZlx133DGLdqTMAQccUALkn/3hojbuu+++RVoY54hM2a44qyrxyvDV4SxZB+nXX3/9xEIDWsYAlIRXCOg4mKHEaR15xE09Jkf6JlNr4H80xCkc0EkM0Zl5kNZESU13wO3DqCf6euBrTnswqopSooWpiWiwJBFZ1C+43lkHQHtHqxxzzDEZtYzWTpAAfwwmd+9IGSO1dCKLaGAkFh2kMU0yshuhnRxhxD7uuONyBO+vSz1SxjVp6mkSNY32qJ8I5Xgc4HxRIJyhc1CBiBFnXeV3oqyjZNTD4XGivamagxJA/IP+2m277bYZnRyQQJw2IpKoozWsKR1dRNfna911181I5bQP0c2xMvQhYukzctZZZ+U0VZ5gnaceRWIRXjRsMpgGBnYmp1M4FoWCJxLTj4gM3R577DHR1wNfcwJEHOqVZwtxTlOtqYTB1qNgGAtH8CCA1CNlrMlct4Yx5TI9dY2xOo5G/X1fy2FsyjVlchpfRJYuDiDLNYfTPvqnerV+BhKn7Tmjqgq9OftI2coiTrZQvrZyJqK+nJpwKuV7r/UxwDj1z8mC6l/FNJQTm5o6hWPvvffOY22cYVvrqBz3I64pQ13USbvdw2mDPpsmcyqEWe9NBtfAwA8gdLojTRjGeNEx55133lI5ktE7phzpRDHl6SzgB3EkdWEsVfo/u+ZIGYYaJxHmqO9JmzWCp20ig4jlAQJjYzwMvArDExkdfmak9pBBxJzsyBXHuYgs1h7WNSIco7bod7Tl8ccfn0e9OL7UOVGMub++9bPrXpyHIzvzScTQB3E6Y3dOHJDm2Bj1tm4SYUUgx22KsJw1TuCozciyPG3UPpF2bGwsjxoVqdTPWs7BaNpVHUhd1KHJEBoI5Q0tMQLm/D5uk0dC1uNchi6oL4M1hGMqh5VwgjxhwpqFxIHGuY6yjgkDy5MvYtGf64YYgUscCpbpYspWYrpV4pCxPIIlHDfXTPUoUUfKxNQq08aZSHmkTBhzifOZ8tpkP0455ZRMax1ijeQYF+J4GUdhOu0ijDmvxYCR6yy/WLNZBxFHZVo7ORYzpna5LlLPuoYJ587TL5QVjpl54mFCiSiVaWN2kNfiyWK+Kwvk33E49EMcv6k9jqSpOtlggw2KUzbCiUpE7BIPZzJt+zGYBqbNGndol5HacZlOoJtJMYKaopD+z0ZXUzViGiPq1FPzXBMNTWe8RCaHS4faFivLNVMpT81Mg6YSkdD93KvWSx71sbYxZSPKrffzTkRDn73HQ4PeekvdRKoq1nrSWX9VcU10qeX360Kd5K/3k2d8Gf3pfVYHryaDaWDazjRY8S3V0mjAAw8Ob/rYZPZroDnTLO4j0YH0R7dZXN0FX7XmTAveBJoCRqWBgZ/mjeqGrZymgfmqgeZM87VnW7uWuwaaMy13lbcbzlcNNGearz3b2rXcNdCcabmrvN1wvmqgOdN87dnWruWugeZMy13l7YbzVQPNmeZrz7Z2LXcN/B+sFK2b78W0VQAAAABJRU5ErkJggg==&quot; width=&quot;211&quot; height=&quot;153&quot;&gt;&lt;br style=&quot;font-size: 16px ; font-weight: 700&quot;&gt;&lt;span style=&quot;font-size: 16px&quot;&gt;&lt;i&gt;&lt;br&gt;&lt;/i&gt;&lt;/span&gt;" style="text;html=1;strokeColor=#d6b656;fillColor=#fff2cc;align=left;verticalAlign=middle;whiteSpace=wrap;rounded=0;" parent="4POnMIoaygIDgxZVQFEF-1" vertex="1">
          <mxGeometry x="80" y="40" width="880" height="650" as="geometry" />
        </mxCell>
        <mxCell id="MpYVxf_aK6BQoei4vzHf-0" value="Student&#39;s Name: Grace McLeod (and the rest of group two)" style="text;html=1;align=left;verticalAlign=middle;resizable=0;points=[];autosize=1;strokeColor=none;fillColor=none;fontSize=17;fontStyle=1" parent="4POnMIoaygIDgxZVQFEF-1" vertex="1">
          <mxGeometry x="70" y="15" width="500" height="30" as="geometry" />
        </mxCell>
        <mxCell id="oj3YaDMcEJ3K_aZ8vTku-1" value="BookView" style="swimlane;fontStyle=1;align=center;verticalAlign=top;childLayout=stackLayout;horizontal=1;startSize=26;horizontalStack=0;resizeParent=1;resizeParentMax=0;resizeLast=0;collapsible=1;marginBottom=0;whiteSpace=wrap;html=1;fillColor=#dae8fc;strokeColor=#6c8ebf;" parent="4POnMIoaygIDgxZVQFEF-1" vertex="1">
          <mxGeometry x="20" y="1242" width="300" height="362" as="geometry" />
        </mxCell>
        <mxCell id="oj3YaDMcEJ3K_aZ8vTku-2" value="-book: Book" style="text;strokeColor=none;fillColor=none;align=left;verticalAlign=top;spacingLeft=4;spacingRight=4;overflow=hidden;rotatable=0;points=[[0,0.5],[1,0.5]];portConstraint=eastwest;whiteSpace=wrap;html=1;" parent="oj3YaDMcEJ3K_aZ8vTku-1" vertex="1">
          <mxGeometry y="26" width="300" height="26" as="geometry" />
        </mxCell>
        <mxCell id="oj3YaDMcEJ3K_aZ8vTku-3" value="" style="line;strokeWidth=1;fillColor=none;align=left;verticalAlign=middle;spacingTop=-1;spacingLeft=3;spacingRight=3;rotatable=0;labelPosition=right;points=[];portConstraint=eastwest;strokeColor=inherit;" parent="oj3YaDMcEJ3K_aZ8vTku-1" vertex="1">
          <mxGeometry y="52" width="300" height="8" as="geometry" />
        </mxCell>
        <mxCell id="oj3YaDMcEJ3K_aZ8vTku-4" value="+BookView(b: Book, newBook:bool)" style="text;strokeColor=none;fillColor=none;align=left;verticalAlign=top;spacingLeft=4;spacingRight=4;overflow=hidden;rotatable=0;points=[[0,0.5],[1,0.5]];portConstraint=eastwest;whiteSpace=wrap;html=1;fontSize=10;" parent="oj3YaDMcEJ3K_aZ8vTku-1" vertex="1">
          <mxGeometry y="60" width="300" height="26" as="geometry" />
        </mxCell>
        <mxCell id="1VJ1P4NYAiRiTMh7e9-F-1" value="+DisplayPage(page: int): void" style="text;strokeColor=none;fillColor=none;align=left;verticalAlign=top;spacingLeft=4;spacingRight=4;overflow=hidden;rotatable=0;points=[[0,0.5],[1,0.5]];portConstraint=eastwest;whiteSpace=wrap;html=1;" parent="oj3YaDMcEJ3K_aZ8vTku-1" vertex="1">
          <mxGeometry y="86" width="300" height="26" as="geometry" />
        </mxCell>
        <mxCell id="iOFYCyHcPFmQj8EUrqfc-14" value="-nextBtn_Click(sender: object, e:EventArgs): void" style="text;strokeColor=none;fillColor=none;align=left;verticalAlign=top;spacingLeft=4;spacingRight=4;overflow=hidden;rotatable=0;points=[[0,0.5],[1,0.5]];portConstraint=eastwest;whiteSpace=wrap;html=1;" parent="oj3YaDMcEJ3K_aZ8vTku-1" vertex="1">
          <mxGeometry y="112" width="300" height="26" as="geometry" />
        </mxCell>
        <mxCell id="iOFYCyHcPFmQj8EUrqfc-15" value="-backPageBtn_Click(sender:object, e:EventArgs):void" style="text;strokeColor=none;fillColor=none;align=left;verticalAlign=top;spacingLeft=4;spacingRight=4;overflow=hidden;rotatable=0;points=[[0,0.5],[1,0.5]];portConstraint=eastwest;whiteSpace=wrap;html=1;" parent="oj3YaDMcEJ3K_aZ8vTku-1" vertex="1">
          <mxGeometry y="138" width="300" height="28" as="geometry" />
        </mxCell>
        <mxCell id="GQee9p7Q_ueUwe0o0L3Y-6" value="+HasRoom():bool" style="text;strokeColor=none;fillColor=none;align=left;verticalAlign=top;spacingLeft=4;spacingRight=4;overflow=hidden;rotatable=0;points=[[0,0.5],[1,0.5]];portConstraint=eastwest;whiteSpace=wrap;html=1;" parent="oj3YaDMcEJ3K_aZ8vTku-1" vertex="1">
          <mxGeometry y="166" width="300" height="28" as="geometry" />
        </mxCell>
        <mxCell id="iOFYCyHcPFmQj8EUrqfc-17" value="-BookMarkColorSet(Red:bool):void" style="text;strokeColor=none;fillColor=none;align=left;verticalAlign=top;spacingLeft=4;spacingRight=4;overflow=hidden;rotatable=0;points=[[0,0.5],[1,0.5]];portConstraint=eastwest;whiteSpace=wrap;html=1;" parent="oj3YaDMcEJ3K_aZ8vTku-1" vertex="1">
          <mxGeometry y="194" width="300" height="28" as="geometry" />
        </mxCell>
        <mxCell id="iOFYCyHcPFmQj8EUrqfc-18" value="-IsInBookmarkList(page: int) : bool" style="text;strokeColor=none;fillColor=none;align=left;verticalAlign=top;spacingLeft=4;spacingRight=4;overflow=hidden;rotatable=0;points=[[0,0.5],[1,0.5]];portConstraint=eastwest;whiteSpace=wrap;html=1;" parent="oj3YaDMcEJ3K_aZ8vTku-1" vertex="1">
          <mxGeometry y="222" width="300" height="28" as="geometry" />
        </mxCell>
        <mxCell id="iOFYCyHcPFmQj8EUrqfc-19" value="+EditBookmark(page:int,marked:bool):void" style="text;strokeColor=none;fillColor=none;align=left;verticalAlign=top;spacingLeft=4;spacingRight=4;overflow=hidden;rotatable=0;points=[[0,0.5],[1,0.5]];portConstraint=eastwest;whiteSpace=wrap;html=1;" parent="oj3YaDMcEJ3K_aZ8vTku-1" vertex="1">
          <mxGeometry y="250" width="300" height="28" as="geometry" />
        </mxCell>
        <mxCell id="iOFYCyHcPFmQj8EUrqfc-20" value="-editBookMark_Click(sender:object, e:EventArgs):void" style="text;strokeColor=none;fillColor=none;align=left;verticalAlign=top;spacingLeft=4;spacingRight=4;overflow=hidden;rotatable=0;points=[[0,0.5],[1,0.5]];portConstraint=eastwest;whiteSpace=wrap;html=1;" parent="oj3YaDMcEJ3K_aZ8vTku-1" vertex="1">
          <mxGeometry y="278" width="300" height="28" as="geometry" />
        </mxCell>
        <mxCell id="iOFYCyHcPFmQj8EUrqfc-21" value="+SetPageMethod(page:int):void" style="text;strokeColor=none;fillColor=none;align=left;verticalAlign=top;spacingLeft=4;spacingRight=4;overflow=hidden;rotatable=0;points=[[0,0.5],[1,0.5]];portConstraint=eastwest;whiteSpace=wrap;html=1;" parent="oj3YaDMcEJ3K_aZ8vTku-1" vertex="1">
          <mxGeometry y="306" width="300" height="28" as="geometry" />
        </mxCell>
        <mxCell id="iOFYCyHcPFmQj8EUrqfc-22" value="-toPageBtn_Click(sender:object, e:EventArgs):void" style="text;strokeColor=none;fillColor=none;align=left;verticalAlign=top;spacingLeft=4;spacingRight=4;overflow=hidden;rotatable=0;points=[[0,0.5],[1,0.5]];portConstraint=eastwest;whiteSpace=wrap;html=1;" parent="oj3YaDMcEJ3K_aZ8vTku-1" vertex="1">
          <mxGeometry y="334" width="300" height="28" as="geometry" />
        </mxCell>
        <mxCell id="oj3YaDMcEJ3K_aZ8vTku-9" value="Book" style="swimlane;fontStyle=1;align=center;verticalAlign=top;childLayout=stackLayout;horizontal=1;startSize=26;horizontalStack=0;resizeParent=1;resizeParentMax=0;resizeLast=0;collapsible=1;marginBottom=0;whiteSpace=wrap;html=1;fillColor=#ffe6cc;strokeColor=#d79b00;" parent="4POnMIoaygIDgxZVQFEF-1" vertex="1">
          <mxGeometry x="730" y="700" width="340" height="432" as="geometry" />
        </mxCell>
        <mxCell id="iOFYCyHcPFmQj8EUrqfc-28" value="+BookmarkList:List&amp;lt;int&amp;gt;" style="text;strokeColor=none;fillColor=none;align=left;verticalAlign=top;spacingLeft=4;spacingRight=4;overflow=hidden;rotatable=0;points=[[0,0.5],[1,0.5]];portConstraint=eastwest;whiteSpace=wrap;html=1;" parent="oj3YaDMcEJ3K_aZ8vTku-9" vertex="1">
          <mxGeometry y="26" width="340" height="26" as="geometry" />
        </mxCell>
        <mxCell id="iOFYCyHcPFmQj8EUrqfc-29" value="+BookmarkCount: int" style="text;strokeColor=none;fillColor=none;align=left;verticalAlign=top;spacingLeft=4;spacingRight=4;overflow=hidden;rotatable=0;points=[[0,0.5],[1,0.5]];portConstraint=eastwest;whiteSpace=wrap;html=1;" parent="oj3YaDMcEJ3K_aZ8vTku-9" vertex="1">
          <mxGeometry y="52" width="340" height="26" as="geometry" />
        </mxCell>
        <mxCell id="iOFYCyHcPFmQj8EUrqfc-31" value="+Title:string &amp;lt;&amp;lt;get; set;&amp;gt;&amp;gt;" style="text;strokeColor=none;fillColor=none;align=left;verticalAlign=top;spacingLeft=4;spacingRight=4;overflow=hidden;rotatable=0;points=[[0,0.5],[1,0.5]];portConstraint=eastwest;whiteSpace=wrap;html=1;" parent="oj3YaDMcEJ3K_aZ8vTku-9" vertex="1">
          <mxGeometry y="78" width="340" height="26" as="geometry" />
        </mxCell>
        <mxCell id="iOFYCyHcPFmQj8EUrqfc-32" value="+Author:string &amp;lt;&amp;lt;get; set;&amp;gt;&amp;gt;" style="text;strokeColor=none;fillColor=none;align=left;verticalAlign=top;spacingLeft=4;spacingRight=4;overflow=hidden;rotatable=0;points=[[0,0.5],[1,0.5]];portConstraint=eastwest;whiteSpace=wrap;html=1;" parent="oj3YaDMcEJ3K_aZ8vTku-9" vertex="1">
          <mxGeometry y="104" width="340" height="26" as="geometry" />
        </mxCell>
        <mxCell id="iOFYCyHcPFmQj8EUrqfc-33" value="+CurrentPage:int &amp;lt;&amp;lt;get; set;&amp;gt;&amp;gt;" style="text;strokeColor=none;fillColor=none;align=left;verticalAlign=top;spacingLeft=4;spacingRight=4;overflow=hidden;rotatable=0;points=[[0,0.5],[1,0.5]];portConstraint=eastwest;whiteSpace=wrap;html=1;" parent="oj3YaDMcEJ3K_aZ8vTku-9" vertex="1">
          <mxGeometry y="130" width="340" height="26" as="geometry" />
        </mxCell>
        <mxCell id="iOFYCyHcPFmQj8EUrqfc-34" value="+TotalPages:int &amp;lt;&amp;lt;get;set;&amp;gt;&amp;gt;" style="text;strokeColor=none;fillColor=none;align=left;verticalAlign=top;spacingLeft=4;spacingRight=4;overflow=hidden;rotatable=0;points=[[0,0.5],[1,0.5]];portConstraint=eastwest;whiteSpace=wrap;html=1;" parent="oj3YaDMcEJ3K_aZ8vTku-9" vertex="1">
          <mxGeometry y="156" width="340" height="26" as="geometry" />
        </mxCell>
        <mxCell id="iOFYCyHcPFmQj8EUrqfc-35" value="+pageContent:string&lt;br&gt;-bm1:int&lt;br&gt;-bm2:int&lt;br&gt;-bm3:int&lt;br&gt;-bm4:int&lt;br&gt;-bm5:int" style="text;strokeColor=none;fillColor=none;align=left;verticalAlign=top;spacingLeft=4;spacingRight=4;overflow=hidden;rotatable=0;points=[[0,0.5],[1,0.5]];portConstraint=eastwest;whiteSpace=wrap;html=1;" parent="oj3YaDMcEJ3K_aZ8vTku-9" vertex="1">
          <mxGeometry y="182" width="340" height="98" as="geometry" />
        </mxCell>
        <mxCell id="oj3YaDMcEJ3K_aZ8vTku-11" value="" style="line;strokeWidth=1;fillColor=none;align=left;verticalAlign=middle;spacingTop=-1;spacingLeft=3;spacingRight=3;rotatable=0;labelPosition=right;points=[];portConstraint=eastwest;strokeColor=inherit;" parent="oj3YaDMcEJ3K_aZ8vTku-9" vertex="1">
          <mxGeometry y="280" width="340" height="8" as="geometry" />
        </mxCell>
        <mxCell id="GQee9p7Q_ueUwe0o0L3Y-3" value="+Book()" style="text;strokeColor=none;fillColor=none;align=left;verticalAlign=top;spacingLeft=4;spacingRight=4;overflow=hidden;rotatable=0;points=[[0,0.5],[1,0.5]];portConstraint=eastwest;whiteSpace=wrap;html=1;" parent="oj3YaDMcEJ3K_aZ8vTku-9" vertex="1">
          <mxGeometry y="288" width="340" height="26" as="geometry" />
        </mxCell>
        <mxCell id="AOi_lWYb5421KtTu6oSp-0" value="+AddBookmark(page: int):void" style="text;strokeColor=none;fillColor=none;align=left;verticalAlign=top;spacingLeft=4;spacingRight=4;overflow=hidden;rotatable=0;points=[[0,0.5],[1,0.5]];portConstraint=eastwest;whiteSpace=wrap;html=1;" parent="oj3YaDMcEJ3K_aZ8vTku-9" vertex="1">
          <mxGeometry y="314" width="340" height="26" as="geometry" />
        </mxCell>
        <mxCell id="AOi_lWYb5421KtTu6oSp-1" value="+RemoveBookmark(page: int):void" style="text;strokeColor=none;fillColor=none;align=left;verticalAlign=top;spacingLeft=4;spacingRight=4;overflow=hidden;rotatable=0;points=[[0,0.5],[1,0.5]];portConstraint=eastwest;whiteSpace=wrap;html=1;" parent="oj3YaDMcEJ3K_aZ8vTku-9" vertex="1">
          <mxGeometry y="340" width="340" height="26" as="geometry" />
        </mxCell>
        <mxCell id="GQee9p7Q_ueUwe0o0L3Y-4" value="+ToString():string&amp;lt;&amp;lt;override&amp;gt;&amp;gt;" style="text;strokeColor=none;fillColor=none;align=left;verticalAlign=top;spacingLeft=4;spacingRight=4;overflow=hidden;rotatable=0;points=[[0,0.5],[1,0.5]];portConstraint=eastwest;whiteSpace=wrap;html=1;" parent="oj3YaDMcEJ3K_aZ8vTku-9" vertex="1">
          <mxGeometry y="366" width="340" height="26" as="geometry" />
        </mxCell>
        <mxCell id="GQee9p7Q_ueUwe0o0L3Y-5" value="+Book(title:string, author:string,current:int, total:int, bm1:int, bm2:int, bm3:int, bm4:int, bm5:int" style="text;strokeColor=none;fillColor=none;align=left;verticalAlign=top;spacingLeft=4;spacingRight=4;overflow=hidden;rotatable=0;points=[[0,0.5],[1,0.5]];portConstraint=eastwest;whiteSpace=wrap;html=1;" parent="oj3YaDMcEJ3K_aZ8vTku-9" vertex="1">
          <mxGeometry y="392" width="340" height="40" as="geometry" />
        </mxCell>
        <mxCell id="oj3YaDMcEJ3K_aZ8vTku-13" value="Controller" style="swimlane;fontStyle=1;align=center;verticalAlign=top;childLayout=stackLayout;horizontal=1;startSize=26;horizontalStack=0;resizeParent=1;resizeParentMax=0;resizeLast=0;collapsible=1;marginBottom=0;whiteSpace=wrap;html=1;fillColor=#d5e8d4;strokeColor=#82b366;" parent="4POnMIoaygIDgxZVQFEF-1" vertex="1">
          <mxGeometry x="760" y="1240" width="280" height="260" as="geometry" />
        </mxCell>
        <mxCell id="GQee9p7Q_ueUwe0o0L3Y-7" value="+books:List&amp;lt;Book&amp;gt;" style="text;strokeColor=none;fillColor=none;align=left;verticalAlign=top;spacingLeft=4;spacingRight=4;overflow=hidden;rotatable=0;points=[[0,0.5],[1,0.5]];portConstraint=eastwest;whiteSpace=wrap;html=1;" parent="oj3YaDMcEJ3K_aZ8vTku-13" vertex="1">
          <mxGeometry y="26" width="280" height="26" as="geometry" />
        </mxCell>
        <mxCell id="GQee9p7Q_ueUwe0o0L3Y-8" value="-FileName:string" style="text;strokeColor=none;fillColor=none;align=left;verticalAlign=top;spacingLeft=4;spacingRight=4;overflow=hidden;rotatable=0;points=[[0,0.5],[1,0.5]];portConstraint=eastwest;whiteSpace=wrap;html=1;" parent="oj3YaDMcEJ3K_aZ8vTku-13" vertex="1">
          <mxGeometry y="52" width="280" height="26" as="geometry" />
        </mxCell>
        <mxCell id="GQee9p7Q_ueUwe0o0L3Y-9" value="+initialized:bool" style="text;strokeColor=none;fillColor=none;align=left;verticalAlign=top;spacingLeft=4;spacingRight=4;overflow=hidden;rotatable=0;points=[[0,0.5],[1,0.5]];portConstraint=eastwest;whiteSpace=wrap;html=1;" parent="oj3YaDMcEJ3K_aZ8vTku-13" vertex="1">
          <mxGeometry y="78" width="280" height="26" as="geometry" />
        </mxCell>
        <mxCell id="oj3YaDMcEJ3K_aZ8vTku-15" value="" style="line;strokeWidth=1;fillColor=none;align=left;verticalAlign=middle;spacingTop=-1;spacingLeft=3;spacingRight=3;rotatable=0;labelPosition=right;points=[];portConstraint=eastwest;strokeColor=inherit;" parent="oj3YaDMcEJ3K_aZ8vTku-13" vertex="1">
          <mxGeometry y="104" width="280" height="8" as="geometry" />
        </mxCell>
        <mxCell id="CwOsdh4kjluZWj4GR4pg-10" value="+Controller()" style="text;strokeColor=none;fillColor=none;align=left;verticalAlign=top;spacingLeft=4;spacingRight=4;overflow=hidden;rotatable=0;points=[[0,0.5],[1,0.5]];portConstraint=eastwest;whiteSpace=wrap;html=1;" parent="oj3YaDMcEJ3K_aZ8vTku-13" vertex="1">
          <mxGeometry y="112" width="280" height="26" as="geometry" />
        </mxCell>
        <mxCell id="GQee9p7Q_ueUwe0o0L3Y-10" value="+LoadBooks():void" style="text;strokeColor=none;fillColor=none;align=left;verticalAlign=top;spacingLeft=4;spacingRight=4;overflow=hidden;rotatable=0;points=[[0,0.5],[1,0.5]];portConstraint=eastwest;whiteSpace=wrap;html=1;fontSize=10;" parent="oj3YaDMcEJ3K_aZ8vTku-13" vertex="1">
          <mxGeometry y="138" width="280" height="26" as="geometry" />
        </mxCell>
        <mxCell id="GQee9p7Q_ueUwe0o0L3Y-11" value="+SyncLib():List&amp;lt;Book&amp;gt;" style="text;strokeColor=none;fillColor=none;align=left;verticalAlign=top;spacingLeft=4;spacingRight=4;overflow=hidden;rotatable=0;points=[[0,0.5],[1,0.5]];portConstraint=eastwest;whiteSpace=wrap;html=1;fontSize=10;" parent="oj3YaDMcEJ3K_aZ8vTku-13" vertex="1">
          <mxGeometry y="164" width="280" height="26" as="geometry" />
        </mxCell>
        <mxCell id="GQee9p7Q_ueUwe0o0L3Y-12" value="+ReadBooks():List&amp;lt;Book&amp;gt;" style="text;strokeColor=none;fillColor=none;align=left;verticalAlign=top;spacingLeft=4;spacingRight=4;overflow=hidden;rotatable=0;points=[[0,0.5],[1,0.5]];portConstraint=eastwest;whiteSpace=wrap;html=1;fontSize=10;" parent="oj3YaDMcEJ3K_aZ8vTku-13" vertex="1">
          <mxGeometry y="190" width="280" height="26" as="geometry" />
        </mxCell>
        <mxCell id="GQee9p7Q_ueUwe0o0L3Y-13" value="+WriteFileOut():void&lt;br&gt;+GetAllBooks():List&amp;lt;Book&amp;gt;" style="text;strokeColor=none;fillColor=none;align=left;verticalAlign=top;spacingLeft=4;spacingRight=4;overflow=hidden;rotatable=0;points=[[0,0.5],[1,0.5]];portConstraint=eastwest;whiteSpace=wrap;html=1;fontSize=10;" parent="oj3YaDMcEJ3K_aZ8vTku-13" vertex="1">
          <mxGeometry y="216" width="280" height="44" as="geometry" />
        </mxCell>
        <mxCell id="oj3YaDMcEJ3K_aZ8vTku-17" value="&lt;p style=&quot;margin:0px;margin-top:4px;text-align:center;&quot;&gt;&lt;i&gt;&amp;lt;&amp;lt;delegate&amp;gt;&amp;gt;&lt;/i&gt;&lt;br&gt;&lt;b&gt;Fill&lt;/b&gt;&lt;b style=&quot;background-color: initial;&quot;&gt;LibDel&lt;/b&gt;&lt;/p&gt;&lt;hr size=&quot;1&quot;&gt;&lt;p style=&quot;margin:0px;margin-left:4px;&quot;&gt;+ GetAllBooks(): List&amp;lt;Book&amp;gt;&lt;/p&gt;" style="verticalAlign=top;align=left;overflow=fill;fontSize=12;fontFamily=Helvetica;html=1;whiteSpace=wrap;fillColor=#fff2cc;strokeColor=#d6b656;" parent="4POnMIoaygIDgxZVQFEF-1" vertex="1">
          <mxGeometry x="450" y="1383" width="170" height="80" as="geometry" />
        </mxCell>
        <mxCell id="1VJ1P4NYAiRiTMh7e9-F-5" value="LibraryView" style="swimlane;fontStyle=1;align=center;verticalAlign=top;childLayout=stackLayout;horizontal=1;startSize=26;horizontalStack=0;resizeParent=1;resizeParentMax=0;resizeLast=0;collapsible=1;marginBottom=0;whiteSpace=wrap;html=1;fillColor=#dae8fc;strokeColor=#6c8ebf;" parent="4POnMIoaygIDgxZVQFEF-1" vertex="1">
          <mxGeometry x="10" y="870" width="340" height="272" as="geometry" />
        </mxCell>
        <mxCell id="1VJ1P4NYAiRiTMh7e9-F-7" value="-fillLibDel:FillLibDel" style="text;strokeColor=none;fillColor=none;align=left;verticalAlign=top;spacingLeft=4;spacingRight=4;overflow=hidden;rotatable=0;points=[[0,0.5],[1,0.5]];portConstraint=eastwest;whiteSpace=wrap;html=1;" parent="1VJ1P4NYAiRiTMh7e9-F-5" vertex="1">
          <mxGeometry y="26" width="340" height="26" as="geometry" />
        </mxCell>
        <mxCell id="iOFYCyHcPFmQj8EUrqfc-24" value="-lib:List&amp;lt;Book&amp;gt;&lt;br&gt;-closeAppLib:CloseAppDelegate" style="text;strokeColor=none;fillColor=none;align=left;verticalAlign=top;spacingLeft=4;spacingRight=4;overflow=hidden;rotatable=0;points=[[0,0.5],[1,0.5]];portConstraint=eastwest;whiteSpace=wrap;html=1;" parent="1VJ1P4NYAiRiTMh7e9-F-5" vertex="1">
          <mxGeometry y="52" width="340" height="46" as="geometry" />
        </mxCell>
        <mxCell id="1VJ1P4NYAiRiTMh7e9-F-10" value="" style="line;strokeWidth=1;fillColor=none;align=left;verticalAlign=middle;spacingTop=-1;spacingLeft=3;spacingRight=3;rotatable=0;labelPosition=right;points=[];portConstraint=eastwest;strokeColor=inherit;" parent="1VJ1P4NYAiRiTMh7e9-F-5" vertex="1">
          <mxGeometry y="98" width="340" height="8" as="geometry" />
        </mxCell>
        <mxCell id="1VJ1P4NYAiRiTMh7e9-F-13" value="+LibraryView(f:FillLibDel,c: CloseAppDelegate)&lt;br&gt;" style="text;strokeColor=none;fillColor=none;align=left;verticalAlign=top;spacingLeft=4;spacingRight=4;overflow=hidden;rotatable=0;points=[[0,0.5],[1,0.5]];portConstraint=eastwest;whiteSpace=wrap;html=1;fontSize=10;" parent="1VJ1P4NYAiRiTMh7e9-F-5" vertex="1">
          <mxGeometry y="106" width="340" height="26" as="geometry" />
        </mxCell>
        <mxCell id="iOFYCyHcPFmQj8EUrqfc-25" value="+uxSyncLib_Click(sender:object, e:EventArgs):void" style="text;strokeColor=none;fillColor=none;align=left;verticalAlign=top;spacingLeft=4;spacingRight=4;overflow=hidden;rotatable=0;points=[[0,0.5],[1,0.5]];portConstraint=eastwest;whiteSpace=wrap;html=1;fontSize=11;" parent="1VJ1P4NYAiRiTMh7e9-F-5" vertex="1">
          <mxGeometry y="132" width="340" height="26" as="geometry" />
        </mxCell>
        <mxCell id="iOFYCyHcPFmQj8EUrqfc-26" value="-uxSelectBook_Click(sender:object, e:EventArgs):void" style="text;strokeColor=none;fillColor=none;align=left;verticalAlign=top;spacingLeft=4;spacingRight=4;overflow=hidden;rotatable=0;points=[[0,0.5],[1,0.5]];portConstraint=eastwest;whiteSpace=wrap;html=1;fontSize=11;" parent="1VJ1P4NYAiRiTMh7e9-F-5" vertex="1">
          <mxGeometry y="158" width="340" height="26" as="geometry" />
        </mxCell>
        <mxCell id="GQee9p7Q_ueUwe0o0L3Y-15" value="-uxExit_Click(sender:object,e:EventArgs)&lt;br&gt;+PopulateBooks():void&lt;br&gt;-Close(sender:object, e:FormClosedEventArgs):void" style="text;strokeColor=none;fillColor=none;align=left;verticalAlign=top;spacingLeft=4;spacingRight=4;overflow=hidden;rotatable=0;points=[[0,0.5],[1,0.5]];portConstraint=eastwest;whiteSpace=wrap;html=1;fontSize=11;" parent="1VJ1P4NYAiRiTMh7e9-F-5" vertex="1">
          <mxGeometry y="184" width="340" height="88" as="geometry" />
        </mxCell>
        <mxCell id="iOFYCyHcPFmQj8EUrqfc-43" value="" style="endArrow=open;endFill=1;endSize=12;html=1;rounded=0;exitX=1;exitY=0.5;exitDx=0;exitDy=0;entryX=0;entryY=0.5;entryDx=0;entryDy=0;" parent="4POnMIoaygIDgxZVQFEF-1" target="iOFYCyHcPFmQj8EUrqfc-28" edge="1">
          <mxGeometry width="160" relative="1" as="geometry">
            <mxPoint x="350" y="929" as="sourcePoint" />
            <mxPoint x="510" y="940" as="targetPoint" />
          </mxGeometry>
        </mxCell>
        <mxCell id="ephFnOiCWZ6bAWKSKOt8-1" value="HAS_A" style="edgeLabel;html=1;align=center;verticalAlign=middle;resizable=0;points=[];" vertex="1" connectable="0" parent="iOFYCyHcPFmQj8EUrqfc-43">
          <mxGeometry x="-0.2905" y="2" relative="1" as="geometry">
            <mxPoint as="offset" />
          </mxGeometry>
        </mxCell>
        <mxCell id="iOFYCyHcPFmQj8EUrqfc-44" value="" style="endArrow=open;endFill=1;endSize=12;html=1;rounded=0;exitX=0.5;exitY=0;exitDx=0;exitDy=0;entryX=0.532;entryY=0.974;entryDx=0;entryDy=0;entryPerimeter=0;" parent="4POnMIoaygIDgxZVQFEF-1" source="oj3YaDMcEJ3K_aZ8vTku-13" target="GQee9p7Q_ueUwe0o0L3Y-5" edge="1">
          <mxGeometry width="160" relative="1" as="geometry">
            <mxPoint x="810" y="1130" as="sourcePoint" />
            <mxPoint x="1060" y="1220" as="targetPoint" />
          </mxGeometry>
        </mxCell>
        <mxCell id="ephFnOiCWZ6bAWKSKOt8-0" value="HAS_A" style="edgeLabel;html=1;align=center;verticalAlign=middle;resizable=0;points=[];" vertex="1" connectable="0" parent="iOFYCyHcPFmQj8EUrqfc-44">
          <mxGeometry x="-0.0084" y="-1" relative="1" as="geometry">
            <mxPoint as="offset" />
          </mxGeometry>
        </mxCell>
        <mxCell id="GQee9p7Q_ueUwe0o0L3Y-14" value="&lt;p style=&quot;margin:0px;margin-top:4px;text-align:center;&quot;&gt;&lt;i&gt;&amp;lt;&amp;lt;delegate&amp;gt;&amp;gt;&lt;/i&gt;&lt;br&gt;&lt;b&gt;CloseAppDelegate&lt;/b&gt;&lt;/p&gt;&lt;hr size=&quot;1&quot;&gt;&lt;p style=&quot;margin:0px;margin-left:4px;&quot;&gt;+WriteFileOut():void&lt;/p&gt;" style="verticalAlign=top;align=left;overflow=fill;fontSize=12;fontFamily=Helvetica;html=1;whiteSpace=wrap;fillColor=#fff2cc;strokeColor=#d6b656;" parent="4POnMIoaygIDgxZVQFEF-1" vertex="1">
          <mxGeometry x="465" y="1100" width="170" height="70" as="geometry" />
        </mxCell>
        <mxCell id="b_34Hp7Sm1Ee62J1OtfF-5" value="" style="endArrow=open;endFill=1;endSize=12;html=1;rounded=0;exitX=1;exitY=0.5;exitDx=0;exitDy=0;entryX=0.018;entryY=0.657;entryDx=0;entryDy=0;entryPerimeter=0;" parent="4POnMIoaygIDgxZVQFEF-1" source="iOFYCyHcPFmQj8EUrqfc-26" target="GQee9p7Q_ueUwe0o0L3Y-14" edge="1">
          <mxGeometry width="160" relative="1" as="geometry">
            <mxPoint x="350" y="940" as="sourcePoint" />
            <mxPoint x="435" y="1125" as="targetPoint" />
          </mxGeometry>
        </mxCell>
        <mxCell id="b_34Hp7Sm1Ee62J1OtfF-6" value="HAS_A" style="edgeLabel;html=1;align=center;verticalAlign=middle;resizable=0;points=[];" parent="b_34Hp7Sm1Ee62J1OtfF-5" vertex="1" connectable="0">
          <mxGeometry x="0.1313" y="-3" relative="1" as="geometry">
            <mxPoint as="offset" />
          </mxGeometry>
        </mxCell>
        <mxCell id="b_34Hp7Sm1Ee62J1OtfF-29" value="" style="endArrow=block;dashed=1;endFill=0;endSize=12;html=1;rounded=0;entryX=1.006;entryY=0.65;entryDx=0;entryDy=0;exitX=0;exitY=0.5;exitDx=0;exitDy=0;entryPerimeter=0;" parent="4POnMIoaygIDgxZVQFEF-1" source="GQee9p7Q_ueUwe0o0L3Y-11" target="oj3YaDMcEJ3K_aZ8vTku-17" edge="1">
          <mxGeometry width="160" relative="1" as="geometry">
            <mxPoint x="760" y="1178" as="sourcePoint" />
            <mxPoint x="606" y="1040" as="targetPoint" />
          </mxGeometry>
        </mxCell>
        <mxCell id="b_34Hp7Sm1Ee62J1OtfF-30" value="Implements" style="edgeLabel;html=1;align=center;verticalAlign=middle;resizable=0;points=[];" parent="b_34Hp7Sm1Ee62J1OtfF-29" vertex="1" connectable="0">
          <mxGeometry x="0.2376" relative="1" as="geometry">
            <mxPoint x="-4" y="3" as="offset" />
          </mxGeometry>
        </mxCell>
        <mxCell id="uan_hp6OzQ8IaX3rrszR-0" value="" style="endArrow=open;endFill=1;endSize=12;html=1;rounded=0;exitX=0.997;exitY=0.602;exitDx=0;exitDy=0;exitPerimeter=0;" parent="4POnMIoaygIDgxZVQFEF-1" source="GQee9p7Q_ueUwe0o0L3Y-15" target="oj3YaDMcEJ3K_aZ8vTku-17" edge="1">
          <mxGeometry width="160" relative="1" as="geometry">
            <mxPoint x="360" y="1051" as="sourcePoint" />
            <mxPoint x="478" y="1156" as="targetPoint" />
            <Array as="points">
              <mxPoint x="420" y="1240" />
            </Array>
          </mxGeometry>
        </mxCell>
        <mxCell id="uan_hp6OzQ8IaX3rrszR-1" value="HAS_A" style="edgeLabel;html=1;align=center;verticalAlign=middle;resizable=0;points=[];" parent="uan_hp6OzQ8IaX3rrszR-0" vertex="1" connectable="0">
          <mxGeometry x="0.1313" y="-3" relative="1" as="geometry">
            <mxPoint as="offset" />
          </mxGeometry>
        </mxCell>
        <mxCell id="uan_hp6OzQ8IaX3rrszR-2" value="" style="endArrow=block;dashed=1;endFill=0;endSize=12;html=1;rounded=0;" parent="4POnMIoaygIDgxZVQFEF-1" edge="1">
          <mxGeometry width="160" relative="1" as="geometry">
            <mxPoint x="750" y="1320" as="sourcePoint" />
            <mxPoint x="640" y="1140" as="targetPoint" />
            <Array as="points" />
          </mxGeometry>
        </mxCell>
        <mxCell id="uan_hp6OzQ8IaX3rrszR-3" value="Implements" style="edgeLabel;html=1;align=center;verticalAlign=middle;resizable=0;points=[];" parent="uan_hp6OzQ8IaX3rrszR-2" vertex="1" connectable="0">
          <mxGeometry x="0.2376" relative="1" as="geometry">
            <mxPoint x="-4" y="3" as="offset" />
          </mxGeometry>
        </mxCell>
        <mxCell id="ephFnOiCWZ6bAWKSKOt8-2" value="" style="endArrow=open;endFill=1;endSize=12;html=1;rounded=0;exitX=1;exitY=0.5;exitDx=0;exitDy=0;edgeStyle=orthogonalEdgeStyle;entryX=0.726;entryY=1.075;entryDx=0;entryDy=0;entryPerimeter=0;" edge="1" parent="4POnMIoaygIDgxZVQFEF-1" source="iOFYCyHcPFmQj8EUrqfc-21" target="GQee9p7Q_ueUwe0o0L3Y-5">
          <mxGeometry width="160" relative="1" as="geometry">
            <mxPoint x="360" y="1580" as="sourcePoint" />
            <mxPoint x="950" y="1190" as="targetPoint" />
            <Array as="points">
              <mxPoint x="1070" y="1562" />
              <mxPoint x="1070" y="1190" />
              <mxPoint x="977" y="1190" />
            </Array>
          </mxGeometry>
        </mxCell>
        <mxCell id="ephFnOiCWZ6bAWKSKOt8-3" value="HAS_A" style="edgeLabel;html=1;align=center;verticalAlign=middle;resizable=0;points=[];" vertex="1" connectable="0" parent="ephFnOiCWZ6bAWKSKOt8-2">
          <mxGeometry x="-0.2905" y="2" relative="1" as="geometry">
            <mxPoint as="offset" />
          </mxGeometry>
        </mxCell>
        <mxCell id="ephFnOiCWZ6bAWKSKOt8-4" value="Use" style="endArrow=open;endSize=12;dashed=1;html=1;rounded=0;exitX=0.5;exitY=0;exitDx=0;exitDy=0;entryX=0.479;entryY=1.034;entryDx=0;entryDy=0;entryPerimeter=0;" edge="1" parent="4POnMIoaygIDgxZVQFEF-1" source="oj3YaDMcEJ3K_aZ8vTku-1" target="GQee9p7Q_ueUwe0o0L3Y-15">
          <mxGeometry width="160" relative="1" as="geometry">
            <mxPoint x="150" y="1190" as="sourcePoint" />
            <mxPoint x="310" y="1190" as="targetPoint" />
          </mxGeometry>
        </mxCell>
      </root>
    </mxGraphModel>
  </diagram>
</mxfile>
